<svg width="147" height="88" viewBox="0 0 147 88" fill="none" xmlns="http://www.w3.org/2000/svg">
<path fill-rule="evenodd" clip-rule="evenodd" d="M72.6044 0.0575815C70.3913 0.311564 68.8324 0.967498 67.7144 2.11512C67.2714 2.56993 67.0063 2.72148 66.6547 2.72148C64.6017 2.72148 62.7011 4.4577 62.7011 6.33323C62.7011 7.79411 63.9302 9.51569 65.57 10.3515C66.2059 10.6757 66.2643 10.8273 65.8631 11.1119C65.1866 11.5916 65.0996 12.2425 65.5313 13.5928C65.7648 14.3228 65.8047 14.755 65.7364 15.8146C65.6214 17.5961 66.1385 19.587 67.3542 22.0446L67.791 22.9273L66.9322 23.7196C66.4543 24.1604 65.8724 24.5519 65.6201 24.6023C65.3708 24.652 65.0554 24.724 64.9192 24.7621C64.7311 24.8145 64.6085 24.6417 64.4093 24.0425C63.7983 22.2043 61.332 20.6946 57.775 19.9815C57.0386 19.834 56.9495 19.774 56.8668 19.3699C56.639 18.2555 55.9049 17.7983 54.8141 18.0918C54.1107 18.281 53.7765 18.6216 53.7097 19.217C53.6604 19.6559 53.6437 19.6636 52.3896 19.8294C50.1639 20.1235 47.9438 20.7818 46.8389 21.4754C46.2051 21.8733 45.9612 22.1996 45.0015 23.9341L44.2937 25.2135L43.3727 25.4019C41.3774 25.8103 39.5567 26.7403 39.2354 27.5154C38.9746 28.1445 39.1543 28.6148 39.8743 29.188C41.1484 30.2026 43.7397 31.0152 47.0499 31.4385C47.935 31.5515 48.6934 31.6783 48.7351 31.7201C48.777 31.7619 48.5068 32.2894 48.1345 32.8925C47.3245 34.2053 47.2845 34.6723 47.9036 35.5854C48.4291 36.36 48.4504 36.5894 48.0673 37.3398C47.5838 38.2863 47.2701 39.7455 47.3519 40.667C47.4475 41.745 48.0992 42.7883 49.5811 44.2354C51.9835 46.5816 52.9102 46.6399 55.9015 44.6329C57.1447 43.7987 58.432 42.7146 59.2219 41.8367C59.5891 41.4288 59.9418 41.095 60.0057 41.095C60.0697 41.095 60.0685 41.3807 60.0033 41.7296C59.8439 42.5824 59.8138 44.2688 59.9403 45.2758C60.0051 45.7923 59.9542 46.6943 59.8031 47.7066C59.671 48.5919 59.5628 49.3479 59.5628 49.3864C59.5628 49.5535 60.3266 49.4378 60.3947 49.2604C60.4361 49.1526 60.5585 48.5646 60.6667 47.9539C60.8528 46.9026 60.8723 46.8659 61.0348 47.2633C61.1291 47.4942 61.2497 48.0533 61.303 48.5059C61.4214 49.513 61.6494 49.2832 61.6527 48.1535C61.6541 47.6836 61.5088 46.9852 61.2878 46.3985C60.6159 44.6148 60.5588 43.889 60.9154 41.6608C61.0899 40.5695 61.368 39.3742 61.5333 39.0047C62.0782 37.7864 62.408 36.711 62.2771 36.5802C62.2055 36.5087 61.9752 36.8514 61.7566 37.355C61.5411 37.8517 61.3459 38.2581 61.3231 38.2579C61.3 38.2579 61.2755 37.4348 61.2684 36.4288C61.2613 35.4229 61.1419 33.9689 61.0032 33.1976C60.8646 32.4262 60.7695 31.7776 60.7921 31.7562C60.8145 31.7349 61.4719 31.641 62.2527 31.5476C63.0336 31.4542 63.9256 31.3382 64.2351 31.2896L64.7977 31.2015L64.3472 32.0572C64.0994 32.528 63.8966 33.0036 63.8966 33.1142C63.8966 33.2249 63.7297 33.4953 63.5258 33.7151C63.0742 34.202 63.1545 34.3759 63.8307 34.3759C64.3446 34.3759 64.3449 34.3764 64.344 35.0852C64.3436 35.4753 64.1037 38.2805 63.811 41.319C63.0859 48.8435 63.0533 49.364 63.3139 49.278C63.4557 49.2311 63.5346 48.9249 63.5594 48.3249C63.5795 47.8386 63.6974 46.3658 63.8217 45.0518C64.5497 37.3521 64.8071 34.8121 64.8786 34.626C64.9301 34.4918 65.3034 34.3855 65.9275 34.3273C67.5079 34.1797 68.9193 33.3425 70.0448 31.8849C70.683 31.0583 70.6863 31.0565 70.909 31.3915C71.3887 32.1134 72.3454 33.0665 72.9396 33.4144C73.2824 33.615 74.3302 34.0195 75.2678 34.3132C76.9944 34.8539 77.3464 35.0786 77.3464 35.6399C77.3464 35.8942 77.0536 36.0727 75.7399 36.6197L74.1334 37.2886L74.0869 37.9348C74.0577 38.3392 74.1275 38.7142 74.2737 38.9369C74.4019 39.1326 74.507 39.5535 74.507 39.8722C74.507 40.2619 74.6048 40.5399 74.8058 40.7218C74.9702 40.8703 75.1047 41.1406 75.1047 41.322C75.1047 41.5036 75.2392 41.8228 75.4036 42.0317C75.5738 42.2477 75.7025 42.6374 75.7025 42.9362C75.7025 43.7258 76.2853 44.3368 77.166 44.4701C78.2352 44.6321 78.6619 44.6018 78.9509 44.3435C79.0959 44.2139 79.5239 44.0622 79.9023 44.0062L80.5903 43.9047L80.672 45.1501C80.7172 45.8351 80.8394 46.8493 80.944 47.4035C81.1277 48.3777 81.1489 48.4114 81.5757 48.4114C82.0022 48.4114 82.0142 48.3923 81.9279 47.8515C81.7124 46.5 81.5179 44.3301 81.5944 44.1307C81.7858 43.6323 81.953 44.1707 82.0541 45.6106C82.1131 46.453 82.2049 47.4025 82.2579 47.7205L82.3544 48.2987L83.3829 48.3344L84.4115 48.37L84.3145 46.7857C84.261 45.9141 84.1521 44.8988 84.0721 44.5293C83.9922 44.1597 83.8194 43.3198 83.6884 42.6628C83.5572 42.0059 83.3165 41.0104 83.1537 40.4508C82.9906 39.8911 82.882 39.3591 82.9122 39.2685C82.9645 39.1117 83.0715 39.3039 83.7735 40.816C84.2135 41.7637 84.014 40.8446 83.5261 39.6766C82.8651 38.0935 82.8228 38.1996 84.0672 38.3221C85.5352 38.4667 85.7794 38.5824 86.2271 39.3457C87.0209 40.6989 87.3448 42.694 87.3542 46.2874L87.359 48.1201L88.5282 48.0914C89.1712 48.0756 89.7738 48.1098 89.8672 48.1676C90.0899 48.3049 91.6364 47.5212 93.0123 46.5736C94.3554 45.6487 95.2847 44.613 95.9188 43.3347C96.3471 42.4713 96.4002 42.2241 96.4002 41.095C96.4002 39.7557 96.3346 39.5749 94.8445 36.8045C94.6574 36.4568 94.4728 35.8856 94.4343 35.5354C94.2848 34.1776 94.0507 33.8047 93.0878 33.3912C92.3164 33.0599 91.6408 32.0652 90.0494 28.9179C89.2211 27.2798 88.4192 25.8149 88.2673 25.6623C88.1153 25.5098 87.6974 25.3268 87.3388 25.2559C84.0149 24.5977 81.0694 23.9607 80.992 23.8834C80.94 23.8314 80.7529 23.269 80.5761 22.6333C80.2286 21.3834 80.3486 21.4909 78.9416 21.1715C78.5422 21.0809 78.5223 21.0382 78.5704 20.3759C78.6208 19.6835 78.628 19.6748 79.2384 19.5708C80.7704 19.3095 82.2986 18.0696 82.4791 16.9415C82.6348 15.9683 82.2598 15.3273 81.3273 14.9731C80.9832 14.8423 80.9343 14.7702 81.0751 14.6007C81.2248 14.4205 81.3273 14.423 81.796 14.6186C82.5675 14.9408 84.5233 14.9135 85.0732 14.5729C85.6915 14.1899 86.4611 13.4488 86.6815 13.0241C86.9812 12.447 87.0768 11.5359 86.9311 10.6494C86.8193 9.96886 86.6924 9.74086 86.1217 9.19437L85.4449 8.54635L85.6547 7.84995C86.2493 5.87573 85.4576 4.10592 83.5419 3.12747C82.7675 2.73193 81.3865 2.55037 80.4754 2.72447C79.7129 2.8702 79.6467 2.8587 79.4025 2.53932C78.7257 1.65404 78.1986 1.07903 78.0637 1.07903C77.9822 1.07903 77.737 0.954806 77.5188 0.802805C76.6586 0.203759 74.3633 -0.14429 72.6044 0.0575815ZM71.8802 0.553601C70.9507 0.755771 68.873 1.73557 68.2648 2.25861C67.8221 2.63906 67.4832 3.46611 67.4832 4.16504C67.4832 4.89847 67.22 4.63732 67.157 3.84133C67.1126 3.28186 67.0773 3.24094 66.6001 3.19555C65.5076 3.09133 63.9707 4.09397 63.5001 5.21771C63.2081 5.9147 63.2509 6.9696 63.5986 7.65062C63.9544 8.34746 64.7103 9.23648 65.1444 9.46851L65.4545 9.6344L65.1668 9.20154C64.5996 8.34791 64.3449 7.72617 64.3449 7.19417C64.3449 6.89674 64.3841 6.61438 64.4317 6.5666C64.4796 6.51882 64.758 6.64201 65.0504 6.84029C65.5425 7.17401 66.1382 7.32198 66.1382 7.1104C66.1382 7.06068 65.9701 6.82044 65.7646 6.57646C65.2616 5.9792 65.2885 5.70342 65.802 6.19287C66.6451 6.99663 67.8069 7.12175 68.9679 6.5339C69.3681 6.33128 69.8695 5.94501 70.0821 5.67535C70.54 5.09467 70.5892 5.26967 70.1817 6.02952C70.0219 6.32725 69.9245 6.60393 69.965 6.64454C70.0775 6.75698 71.0499 6.50747 71.2968 6.30262C71.417 6.20302 71.8258 5.47408 72.2053 4.68271L72.8951 3.24408L73.1699 4.03081C73.321 4.46352 73.5871 5.01762 73.7614 5.26205C74.4835 6.27529 76.4143 6.87434 78.417 6.70651L79.4385 6.62095V7.20955C79.4385 7.59911 79.5397 7.89923 79.7374 8.09677C80.1206 8.47961 80.3062 8.47274 80.7571 8.05944C80.9585 7.87474 81.1489 7.79067 81.18 7.8728C81.2111 7.95492 81.3196 8.16635 81.421 8.34284C81.5225 8.51918 81.8677 9.14405 82.1884 9.7316C82.509 10.319 83.047 11.0372 83.3839 11.3275C83.9394 11.8062 84.0575 11.8472 84.6502 11.7681L85.3037 11.6809L85.2358 12.4996C85.1938 13.0047 85.0632 13.4337 84.8944 13.62C84.744 13.7861 84.6551 13.956 84.6969 13.9976C84.8412 14.1417 85.567 13.4482 85.9227 12.8266C86.453 11.8995 86.5312 11.2052 86.1906 10.4482C85.7423 9.45223 85.2744 9.11314 84.1872 8.99698C83.2941 8.90157 83.2695 8.88843 83.67 8.72075C83.9013 8.62399 84.2243 8.54471 84.3875 8.54471C84.801 8.54471 85.1596 7.6333 85.1638 6.57183C85.1686 5.36597 84.6029 4.48278 83.3355 3.71681C82.2764 3.0767 81.706 2.93754 80.7372 3.08267C79.887 3.21004 79.5911 3.4361 79.4411 4.07262L79.3197 4.5879L79.301 4.0653C79.2601 2.91051 78.3709 1.68301 77.1467 1.09083C76.3715 0.715904 74.4669 0.32754 73.4851 0.344263C73.1019 0.350833 72.3797 0.44505 71.8802 0.553601ZM69.5007 1.80485C69.0156 2.10422 68.4434 2.68744 68.5426 2.78136C68.5764 2.81331 68.9385 2.5441 69.3472 2.18321C70.1555 1.46934 70.1927 1.37766 69.5007 1.80485ZM84.4043 5.80391C84.4498 6.14434 84.4266 6.74518 84.3529 7.13937C84.1965 7.97567 84.4138 8.39435 84.6635 7.73812C84.9169 7.07203 84.8595 5.62891 84.5701 5.39001C84.3438 5.20337 84.329 5.2401 84.4043 5.80391ZM69.5007 6.96497C67.5848 7.28749 67.5742 7.2954 67.285 8.60996C67.1474 9.23573 67.0349 9.92108 67.0349 10.133C67.0349 10.4649 67.0845 10.5058 67.3929 10.4283C68.3232 10.1951 70.9885 10.0086 72.2653 10.0874C74.1939 10.2064 75.7983 10.6452 77.523 11.5255C78.4758 12.0118 78.9905 12.2026 79.0303 12.084C79.1007 11.8747 79.8386 12.2008 80.1436 12.5762C80.2437 12.6994 80.3279 12.7289 80.3304 12.6419C80.3379 12.3922 81.2493 11.5241 81.4037 11.6195C81.4802 11.6667 81.3006 11.9734 81.0044 12.3008C80.5713 12.7797 80.5006 12.9381 80.643 13.1095C80.7405 13.2267 80.869 13.3227 80.9288 13.3227C80.9887 13.3227 81.2289 12.8732 81.4626 12.3235L81.8876 11.3243L80.4763 9.99827C78.8768 8.49543 77.4758 7.70706 75.4783 7.18581C73.9554 6.78833 71.1622 6.68516 69.5007 6.96497ZM67.7991 8.51843C67.6979 8.87364 67.6418 9.2432 67.6742 9.33965C67.7609 9.59722 68.114 8.44437 68.0432 8.13529C68.0061 7.97343 67.9124 8.12051 67.7991 8.51843ZM73.4609 8.47005C73.3622 8.76853 73.3153 9.04625 73.3564 9.08731C73.3975 9.12837 73.5117 8.91784 73.6103 8.61936C73.7089 8.32089 73.7559 8.04316 73.7148 8.0021C73.6737 7.96104 73.5595 8.17157 73.4609 8.47005ZM69.0523 10.5663C66.7538 10.883 66.9223 10.779 66.8236 11.9414C66.7765 12.4958 66.6384 13.7923 66.5166 14.8226C66.3071 16.5948 66.3108 16.7598 66.5846 17.8835C66.883 19.1088 67.2359 20.1096 67.8729 21.5381C68.1407 22.1388 68.3661 22.418 68.7032 22.567C68.9579 22.6796 69.1952 22.8831 69.2309 23.0193C69.3337 23.4123 69.8544 23.6519 70.7896 23.7366C72.1145 23.8567 73.2122 23.2466 75.872 20.912C76.4171 20.4335 76.9372 20.0418 77.0273 20.0418C77.3661 20.0418 75.28 22.8566 73.9637 24.1756C72.229 25.9139 71.8711 26.006 69.9863 25.1985C69.5808 25.0249 69.6598 25.4421 70.1954 26.3032C70.6917 27.1006 71.1282 27.2826 71.294 26.7609C71.4267 26.343 71.8784 26.3606 71.7689 26.7793C71.693 27.0693 71.7332 27.0899 72.2371 27.0203C72.5403 26.9783 73.2772 26.6612 73.8747 26.3154C75.128 25.59 75.5538 25.0459 76.3 23.2164C76.576 22.5399 76.8273 22.0119 76.8587 22.0432C76.9409 22.1254 76.4513 23.7729 76.1958 24.2738C76.0767 24.5074 76.0075 24.7264 76.042 24.7609C76.0764 24.7954 76.4445 24.5035 76.8598 24.1124L77.6149 23.4014L77.7953 21.311C77.8945 20.1613 78.0017 19.1324 78.0335 19.0247C78.0759 18.8811 78.268 18.8551 78.7529 18.9278C79.3233 19.0132 79.5428 18.9586 80.3452 18.5314C81.3895 17.9752 81.8283 17.4023 81.829 16.5934C81.8298 15.9232 81.4599 15.5651 80.601 15.404C79.9688 15.2855 79.952 15.2935 79.1036 16.1264C78.558 16.6623 78.1941 16.9167 78.1036 16.8255C77.8781 16.5982 77.6476 14.8631 77.6464 13.3822L77.6452 12.0231L76.6365 11.5613C74.4364 10.5542 71.7238 10.1982 69.0523 10.5663ZM72.7137 12.3798C71.9588 12.5043 71.8896 12.5635 72.171 12.843C72.3835 13.054 72.7219 13.0988 74.1029 13.0988C75.0237 13.0988 75.895 13.1564 76.0387 13.2267C76.411 13.4089 76.3851 12.9596 76.0014 12.5762C75.7443 12.3194 75.5196 12.2804 74.3949 12.2978C73.6758 12.309 72.9191 12.3459 72.7137 12.3798ZM67.3843 12.569C67.0743 12.7005 66.7765 13.2636 66.9337 13.4207C66.9752 13.4622 67.1452 13.4237 67.3112 13.3348C67.4772 13.246 68.0566 13.1734 68.5989 13.1734C69.3496 13.1734 69.6059 13.1185 69.6733 12.943C69.722 12.8163 69.7366 12.6886 69.706 12.6592C69.5618 12.5209 67.6701 12.4475 67.3843 12.569ZM70.3075 13.1361C70.2991 13.1976 70.3057 13.4828 70.322 13.7696C70.3504 14.266 70.3384 14.2795 70.0757 14.0477C69.4361 13.4831 67.5627 13.5364 67.3394 14.1253C67.1876 14.5256 67.2626 14.6128 67.5524 14.3726C67.8532 14.1231 68.2304 14.284 68.2304 14.6619C68.2304 14.9147 68.3271 14.9652 68.8107 14.9652C69.2654 14.9652 69.408 14.9005 69.4693 14.6666C69.5122 14.5023 69.6281 14.3679 69.7268 14.3679C69.833 14.3679 69.8671 14.4696 69.8105 14.6173C69.7578 14.7545 69.7933 14.9152 69.8892 14.9744C70.0125 15.0506 69.9264 15.3353 69.5954 15.946C69.3378 16.4213 69.1271 16.8904 69.1271 16.9888C69.1271 17.1582 70.0028 17.425 70.1326 17.2951C70.1663 17.2615 70.1075 17.0959 70.002 16.9272C69.8366 16.6624 69.8749 16.4816 70.2815 15.6062C70.8074 14.4744 70.9943 13.5171 70.7478 13.2202C70.5692 13.0051 70.3313 12.9598 70.3075 13.1361ZM73.3554 13.848C72.7567 14.0996 72.4668 14.4798 72.6981 14.7102C72.8398 14.8513 72.9425 14.8092 73.169 14.5172C73.4144 14.2011 73.4813 14.1783 73.6069 14.3679C73.6885 14.4911 73.7562 14.676 73.7575 14.7785C73.759 14.9026 74.0101 14.9652 74.507 14.9652C75.2947 14.9652 75.5294 14.686 74.9938 14.3866C74.8507 14.3066 74.7742 14.2006 74.8238 14.151C74.9445 14.0303 75.7421 14.3409 75.8839 14.564C75.9461 14.6615 75.9963 14.674 75.9957 14.5919C75.9953 14.5098 75.8785 14.2986 75.7366 14.1226C75.4242 13.7357 74.0108 13.5727 73.3554 13.848ZM79.5266 16.1712C78.9965 16.8004 78.8823 17.3172 79.2189 17.5629C79.4036 17.6979 79.4317 17.7887 79.3117 17.8628C79.0714 18.0113 79.0968 18.2501 79.3532 18.2501C79.7403 18.2501 80.0523 17.8123 79.8861 17.5022C79.786 17.3154 79.7866 17.1922 79.8876 17.1298C80.0593 17.0236 80.3793 17.3037 80.5247 17.6876C80.7453 18.2696 81.3813 17.4129 81.3813 16.5339C81.3813 15.6599 80.1584 15.4209 79.5266 16.1712ZM79.9865 16.2593C79.8196 16.4259 79.8749 16.6076 80.0928 16.6076C80.2059 16.6076 80.3878 16.715 80.4966 16.8461C80.6765 17.0626 80.704 17.0592 80.7953 16.8088C80.964 16.3465 80.3303 15.9159 79.9865 16.2593ZM72.2653 16.9809C72.2653 17.461 72.297 17.5138 72.4895 17.3542C72.6128 17.2519 72.7137 17.0839 72.7137 16.9809C72.7137 16.8779 72.6128 16.7099 72.4895 16.6076C72.297 16.448 72.2653 16.5009 72.2653 16.9809ZM73.373 18.0964C72.7716 18.3395 71.4338 18.4152 70.3987 18.2649C69.8241 18.1814 69.3025 18.1644 69.2399 18.2269C69.1771 18.2896 69.2657 18.6301 69.4367 18.9837C69.7026 19.5334 69.7214 19.6896 69.5666 20.0629C69.4672 20.303 69.4342 20.5476 69.4933 20.6065C69.5527 20.6655 70.1165 20.7115 70.7464 20.7088C71.9844 20.7036 72.7697 20.4109 73.4225 19.7119C73.8198 19.2863 74.3596 18.2248 74.2602 18.0643C74.1712 17.9202 73.7733 17.9347 73.373 18.0964ZM69.9627 18.6758C69.6954 19.108 71.9838 19.2623 72.6772 18.8588C72.8692 18.747 72.6168 18.7059 71.7172 18.7025C71.0457 18.7001 70.3969 18.6598 70.2752 18.6132C70.1536 18.5665 70.0129 18.5947 69.9627 18.6758ZM54.818 18.9462C54.7153 18.9877 54.6312 19.1503 54.6312 19.3077C54.6312 19.5249 54.7372 19.5939 55.0707 19.5939C55.5631 19.5939 55.7223 19.4368 55.587 19.0847C55.4977 18.8521 55.1894 18.7966 54.818 18.9462ZM75.3538 19.0962C75.2066 19.2433 75.2328 19.7432 75.3876 19.7432C75.5211 19.7432 75.7025 19.3922 75.7025 19.1337C75.7025 18.9741 75.4981 18.952 75.3538 19.0962ZM67.6326 19.4264C67.6326 19.7892 68.023 20.1401 68.1168 19.8615C68.2211 19.5516 68.0638 19.146 67.8393 19.146C67.7257 19.146 67.6326 19.2721 67.6326 19.4264ZM52.2401 20.4416C49.8837 20.8223 47.8604 21.5139 47.0336 22.2211C46.4715 22.7017 45.3658 24.5786 45.3658 25.0519C45.3658 25.324 47.0046 25.8258 49.7884 26.4062C51.0165 26.6621 57.837 26.8888 58.5947 26.6988C58.8613 26.6319 58.965 26.5047 58.965 26.2443C58.965 26.0454 59.0341 25.84 59.1186 25.7879C59.217 25.7271 59.2431 25.8579 59.1913 26.1519C59.1128 26.5966 59.1254 26.6086 59.598 26.5435C59.8663 26.5067 60.4221 26.4384 60.833 26.3918C62.4548 26.2083 62.9331 26.1196 63.1235 25.9678C63.3555 25.7825 63.2365 24.2885 62.9307 23.5507C62.683 22.9524 61.8657 22.1757 61.2815 21.9829C61.0215 21.8972 60.5533 21.697 60.2412 21.538C59.9292 21.3791 59.0267 21.1084 58.2359 20.9364C57.4452 20.7645 56.555 20.5601 56.2577 20.4822C55.7363 20.3454 53.0056 20.3178 52.2401 20.4416ZM50.496 21.5251C49.0633 22.0404 47.6636 23.2404 47.0161 24.5086C46.6272 25.2701 46.6323 25.4173 47.047 25.4165C47.3047 25.4161 47.4478 25.259 47.6599 24.7442C48.0532 23.7883 49.1177 22.6727 50.3143 21.9626C51.6622 21.1624 51.69 21.0955 50.496 21.5251ZM69.7248 21.4267C69.7248 21.5704 70.397 21.8336 70.764 21.8336C70.9141 21.8336 71.1882 21.711 71.3735 21.5611C71.707 21.2911 71.701 21.2889 70.7176 21.2998C70.1715 21.3059 69.7248 21.3631 69.7248 21.4267ZM80.3171 25.3126C79.9374 25.6575 78.7696 26.4707 77.7222 27.1196C76.185 28.0719 75.7765 28.398 75.604 28.8104C75.3444 29.4314 75.4245 29.7118 76.1768 30.813C76.4981 31.2832 76.9201 32.0589 77.1147 32.5367C77.3093 33.0145 77.5167 33.3929 77.5757 33.3775C77.6348 33.3621 77.7596 33.1962 77.8531 33.0087C78.0798 32.5543 78.9772 31.9635 79.3578 32.018C79.6159 32.0549 79.6742 32.1991 79.7374 32.9575C79.815 33.8871 80.299 34.9226 80.9174 35.4818C81.0903 35.6381 81.2339 35.8397 81.2366 35.9295C81.2392 36.0194 81.3427 36.2271 81.4666 36.3909C81.8472 36.8943 81.9743 36.4038 81.9768 34.4207C81.9784 33.0599 82.0297 32.5688 82.1791 32.4797C82.2891 32.414 82.4614 32.2258 82.562 32.0616C82.72 31.8037 82.7354 31.8496 82.6751 32.3975C82.5916 33.1559 82.8084 33.3903 82.9524 32.6975C83.058 32.1892 83.9606 30.4114 84.2836 30.0757C84.4075 29.947 84.374 30.2488 84.1841 30.9716C83.6664 32.9421 84.2163 34.9886 85.7007 36.617C86.3097 37.285 86.4862 37.3879 87.259 37.5254C88.2717 37.7056 89.131 37.5635 90.4942 36.9901C90.9893 36.782 91.6357 36.6256 91.9498 36.638C92.3977 36.6558 92.4298 36.6733 92.1054 36.7224C91.6735 36.7879 91.2444 37.262 91.2444 37.6738C91.2444 37.8257 91.4931 38.0138 91.8987 38.1685C92.2584 38.3059 92.674 38.5519 92.8221 38.7154C93.054 38.9715 92.9688 38.9563 92.2052 38.6048C91.0149 38.057 89.919 38.0031 87.967 38.3964C87.1095 38.5691 86.3822 38.7363 86.3504 38.768C86.3187 38.7996 86.4711 39.1774 86.6892 39.6071C86.9072 40.037 87.2475 41.1355 87.4453 42.0484C87.6432 42.9612 87.8805 43.9356 87.9727 44.2137C88.0649 44.4919 88.1831 45.1974 88.2353 45.7815L88.3303 46.8436L88.9119 46.8912C90.6446 47.0331 94.0421 44.7352 95.0562 42.7354C95.4306 41.9975 95.4602 41.8197 95.3914 40.7265C95.3214 39.6125 94.9354 38.2535 94.7435 38.4452C94.6974 38.4912 94.7266 38.7702 94.808 39.0653C94.8896 39.3605 94.905 39.6019 94.8423 39.6019C94.6834 39.6019 93.6355 35.868 93.6355 35.3023C93.6355 34.6692 93.1409 34.1814 92.0701 33.7582C91.2432 33.4315 90.0489 32.4562 90.0489 32.1076C90.0489 32.0295 90.294 32.2224 90.5933 32.5362C91.3253 33.3031 91.4052 32.964 90.7489 31.8767C90.4632 31.4035 89.7133 29.9749 89.0823 28.702C88.4515 27.4291 87.8454 26.2955 87.7357 26.1828C87.5671 26.0099 87.4526 26.0417 86.9992 26.3872C86.7039 26.6122 86.4598 26.8387 86.4566 26.8907C86.4536 26.9425 86.2129 27.2537 85.9218 27.5822C85.1985 28.3985 85.5634 27.6677 86.3537 26.7176C86.6808 26.3242 86.9232 25.9796 86.8922 25.9518C86.8612 25.9239 85.6254 25.653 84.146 25.3499C82.6665 25.0468 81.3551 24.7733 81.2318 24.7421C81.1085 24.7109 80.697 24.9675 80.3171 25.3126ZM64.7955 25.6784C64.8006 25.9221 65.0404 26.1226 65.5254 26.2885C66.1254 26.4938 66.1385 26.4952 66.1372 26.3503C66.1358 26.1995 65.1939 25.5664 64.9708 25.5664C64.8732 25.5664 64.7943 25.6169 64.7955 25.6784ZM83.1746 26.0184C84.5182 26.4635 85.299 26.5842 85.0179 26.3033C84.8169 26.1025 82.7762 25.5672 82.2779 25.5847C82.0645 25.5921 82.4492 25.7782 83.1746 26.0184ZM44.6023 26.5743C44.0101 27.9534 44.0283 28.0564 44.9362 28.4715C46.6284 29.2451 49.9168 29.6973 54.934 29.8465C57.8576 29.9334 58.1743 29.9186 58.4085 29.6847C58.5502 29.5431 58.6672 29.2473 58.6684 29.0274C58.6697 28.8073 58.7353 28.5266 58.8144 28.4034C58.9148 28.2468 58.9363 28.3525 58.8857 28.7555C58.8459 29.0723 58.7763 29.3914 58.7308 29.4647C58.6856 29.538 58.7157 29.5979 58.7979 29.5979C58.8801 29.5979 58.9828 29.5407 59.026 29.4707C59.0693 29.4008 59.4263 29.2242 59.8194 29.0781C61.0496 28.6212 63.0844 27.0942 62.8179 26.8278C62.7708 26.781 62.1705 26.8217 61.4839 26.9186C59.9969 27.1286 52.5024 27.118 50.5216 26.9031C48.8868 26.7259 46.8941 26.3711 45.899 26.0804C45.4937 25.962 45.1047 25.8651 45.0345 25.8651C44.9643 25.8651 44.7698 26.1842 44.6023 26.5743ZM42.2562 26.3811C40.3467 26.9988 39.6159 27.7387 40.2296 28.4324C40.5052 28.7437 42.6482 29.8247 42.7628 29.7102C42.7953 29.6776 42.4193 29.4589 41.9273 29.224C41.4353 28.989 40.8864 28.6411 40.7076 28.4509C40.3943 28.1178 40.3931 28.1048 40.6754 28.1048C40.8368 28.1048 41.2352 28.2436 41.5609 28.4132C41.8864 28.5829 42.5227 28.8595 42.9747 29.0281C43.9884 29.4062 44.3445 29.6966 44.0311 29.8901C43.8768 29.9855 43.9805 30.0485 44.4047 30.1172C44.7278 30.1695 45.4293 30.3094 45.9636 30.4281C48.2382 30.9334 50.8142 31.1333 55.6773 31.1817C58.3486 31.2084 60.8704 31.1733 61.2814 31.1039C61.6923 31.0344 62.5498 30.9302 63.1867 30.8723C64.411 30.7609 64.7245 30.5456 63.7845 30.4618C63.2365 30.413 63.2325 30.4082 63.5977 30.2419C63.8032 30.1484 64.4421 29.9663 65.0174 29.837C65.5928 29.7076 66.5303 29.3653 67.1011 29.0762C68.3383 28.4494 68.7406 28.5863 67.7615 29.3011C67.4029 29.5628 66.9489 29.8393 66.7526 29.9155C66.5564 29.9918 66.4373 30.0959 66.4882 30.1466C66.6371 30.2955 68.4365 29.3432 68.6441 29.0057C68.9489 28.5099 68.5353 27.9002 67.5977 27.4635C66.7154 27.0526 65.2924 26.6605 65.1607 26.792C65.1132 26.8393 65.1833 27.252 65.3161 27.7089C65.6096 28.7176 65.4911 29.0178 64.6698 29.3462C62.0244 30.4037 53.2439 30.5669 47.7569 29.6605C46.2822 29.4169 44.7244 28.9908 44.0678 28.6516C43.3806 28.2966 42.6759 27.661 42.6759 27.3964C42.6759 27.189 42.7068 27.1905 42.9492 27.4097C43.3524 27.7743 43.5643 27.714 43.7864 27.1716C44.2295 26.089 44.2284 26.0138 43.7693 26.0211C43.5378 26.0247 42.8568 26.1867 42.2562 26.3811ZM46.0361 26.7983C45.5423 28.163 45.5309 28.2305 45.7621 28.4222C46.1005 28.7028 46.4255 28.4224 46.6574 27.6497C46.8927 26.8661 46.8324 26.6116 46.4119 26.6116C46.2423 26.6116 46.0733 26.6957 46.0361 26.7983ZM49.785 31.9229C49.6558 32.052 49.5502 32.2251 49.5502 32.3076C49.5502 32.4679 50.0708 32.9927 50.9059 33.6743L51.4182 34.0924L50.7636 33.749C50.4036 33.5599 49.9665 33.2553 49.7923 33.072C49.3408 32.597 49.1643 32.6485 48.7345 33.3812C48.2415 34.2217 48.2553 34.7004 48.7945 35.4835C49.4805 36.4798 50.5307 37.0758 52.134 37.3792C54.0591 37.7436 53.945 37.7997 51.3435 37.7677L48.7282 37.7355L48.4011 38.8553C48.2212 39.4713 48.07 40.1467 48.0649 40.3565C48.0422 41.3048 49.9511 43.8896 50.9963 44.3259C51.6854 44.6136 52.6478 44.5782 53.6737 44.2275C55.3552 43.6526 56.8742 42.3308 58.2791 40.2195C59.7206 38.0528 60.2046 36.4539 60.3811 33.2756L60.4712 31.6526L59.7736 31.7571C58.6377 31.9273 58.3279 32.1582 58.9647 32.3601C59.3811 32.4922 59.4622 32.9645 59.3811 34.7856C59.3143 36.2871 59.2899 36.3846 58.8976 36.7218C58.5579 37.0137 58.4204 37.3606 58.1235 38.6726C57.7107 40.4975 57.3624 41.3045 56.7238 41.916C56.1755 42.4407 56.144 42.2531 56.654 41.503C56.8625 41.1964 56.9912 40.9457 56.9399 40.9457C56.8888 40.9457 56.4324 41.3496 55.926 41.8434C55.062 42.6854 54.5572 43.0121 54.3854 42.8402C54.3447 42.7996 54.9159 42.1625 55.6546 41.4244C56.3933 40.6864 57.097 39.8904 57.2182 39.6555C57.4906 39.128 57.9782 37.2223 57.8687 37.113C57.8246 37.069 57.3428 37.1811 56.7981 37.3622C56.2534 37.5433 55.7725 37.6564 55.7294 37.6133C55.6177 37.5018 57.8174 36.4663 58.1662 36.4663C58.699 36.4663 58.8156 36.164 58.8156 34.7816C58.8156 34.0521 58.7651 33.4811 58.7035 33.5126C55.4073 35.2033 54.9764 35.2558 53.2466 34.1787C51.7116 33.2226 50.5756 32.3136 50.4854 31.9686C50.3959 31.6269 50.1006 31.6077 49.785 31.9229ZM78.5514 32.8738C78.0882 33.3063 78.0818 33.3312 78.1248 34.5536L78.1683 35.7944L78.6848 35.9612C79.4167 36.1976 79.4439 36.4587 78.7264 36.3625C78.3101 36.3067 77.7525 36.42 76.7383 36.7666C74.4149 37.5605 74.1574 37.7937 74.7701 38.5498L75.0334 38.8746L76.1284 38.48C76.7307 38.263 77.2606 38.1227 77.3061 38.168C77.4834 38.3453 76.975 38.7163 76.1365 39.0218C75.062 39.4133 74.8989 39.5837 75.0979 40.1063C75.2754 40.573 75.2347 40.5702 76.4256 40.1972C76.9467 40.034 77.5097 39.9005 77.6769 39.9005C78.1835 39.9005 77.7549 40.251 76.8695 40.5606C75.8781 40.9074 75.7922 40.9859 75.9065 41.4409C76.0345 41.9509 76.2801 42.0041 77.3541 41.7537C77.8667 41.6342 78.3268 41.577 78.3765 41.6266C78.5283 41.7781 77.9108 42.1402 77.5004 42.1402C76.5911 42.1402 76.0695 43.1138 76.8007 43.4466C76.9949 43.535 77.7256 43.5841 78.437 43.5565C79.5292 43.5141 79.8748 43.4322 80.7385 43.0109C81.2976 42.7382 81.8344 42.514 81.9317 42.5125C82.0288 42.511 82.2872 42.3426 82.5057 42.1383C82.8637 41.8034 82.8935 41.696 82.8077 41.045C82.6544 39.8816 82.1554 38.731 81.1229 37.1605C79.725 35.0341 79.234 33.9231 79.3271 33.0975C79.4175 32.2958 79.229 32.2413 78.5514 32.8738ZM57.4739 33.2119C57.3138 33.475 57.2086 33.716 57.2403 33.7476C57.3324 33.8396 58.6661 33.0175 58.6661 32.8686C58.6661 32.7943 58.4633 32.7335 58.2156 32.7335C57.8689 32.7335 57.698 32.8437 57.4739 33.2119ZM53.7048 33.109C53.6473 33.1678 53.3783 33.2625 53.107 33.3192L52.6137 33.4224L53.0621 33.6698C54.6698 34.557 54.9392 34.648 55.502 34.4936C56.4584 34.2312 56.8728 33.9504 56.8728 33.5644C56.8728 33.2329 56.8192 33.2096 56.0883 33.2225C55.6568 33.2301 54.9674 33.1837 54.5565 33.1192C54.1455 33.0547 53.7622 33.0502 53.7048 33.109ZM57.8376 34.3625C57.5124 34.5081 57.1541 34.7386 57.0414 34.8749C56.8612 35.0923 56.8757 35.1225 57.1593 35.1225C57.5504 35.1225 58.6661 34.5739 58.6661 34.3818C58.6661 34.1084 58.4176 34.1027 57.8376 34.3625ZM66.0867 35.097C65.8269 35.3838 65.7787 35.6866 65.93 36.0808C66.0575 36.4127 66.9198 36.3833 67.3538 36.0321L67.7059 35.7474L67.2223 35.2856C66.6654 34.7538 66.4325 34.7152 66.0867 35.097ZM66.2877 35.6202C66.2877 35.901 66.4314 36.0112 66.6759 35.9174C66.9938 35.7956 66.9264 35.4211 66.5865 35.4211C66.4222 35.4211 66.2877 35.5107 66.2877 35.6202ZM82.811 37.0822C82.6753 37.4209 82.5853 37.7191 82.611 37.7447C82.6367 37.7704 83.1943 37.8393 83.8502 37.8975L85.0426 38.0035L84.271 37.391C83.8468 37.0542 83.4561 36.7084 83.4029 36.6225C83.2245 36.334 83.0591 36.4624 82.811 37.0822ZM81.4372 39.4511C81.7627 40.5203 81.979 40.7887 81.979 40.1229C81.979 39.7078 81.4143 38.4074 81.2339 38.4074C81.171 38.4074 81.2625 38.877 81.4372 39.4511ZM65.0134 42.4433C64.3714 43.152 65.3294 43.9565 66.2371 43.4711C66.6813 43.2337 66.6776 43.0285 66.2201 42.5353C65.7813 42.0624 65.3856 42.0323 65.0134 42.4433ZM65.3163 42.7375C65.1912 42.9397 65.3599 43.1854 65.624 43.1854C65.7425 43.1854 65.8393 43.051 65.8393 42.8868C65.8393 42.5777 65.4787 42.4747 65.3163 42.7375ZM61.095 44.5076C61.1745 45.3833 61.5372 46.3334 61.6949 46.0787C61.741 46.004 61.6837 45.5767 61.5674 45.1289C61.4511 44.6813 61.3561 44.1615 61.3561 43.9741C61.3561 43.7867 61.2796 43.6334 61.1859 43.6334C61.0689 43.6334 61.0405 43.9069 61.095 44.5076Z" fill="#771C00"/>
<path d="M5.56673 71.9811C6.31026 71.9811 7.00287 71.7825 7.64455 71.3852C8.29642 70.9982 8.90754 70.4584 9.47793 69.7657C10.0585 69.0833 10.6034 68.2685 11.1127 67.3212C11.6321 66.374 12.121 65.3504 12.5794 64.2503C11.4692 60.5836 10.3437 57.2988 9.20292 54.396C8.06215 51.4931 6.95194 49.0333 5.87229 47.0166C5.31209 45.937 4.72643 45.1272 4.1153 44.5874C3.51436 44.0374 2.94398 43.7624 2.40415 43.7624C2.07822 43.7624 1.78794 43.8337 1.5333 43.9763C1.27866 44.1087 1.05968 44.2564 0.87634 44.4193L0.494387 43.9457C0.708281 43.7318 0.973102 43.5128 1.28885 43.2888C1.6046 43.0647 1.97127 42.8559 2.38887 42.6623C2.80648 42.4688 3.27501 42.311 3.79446 42.1887C4.3241 42.0665 4.90467 42.0054 5.53617 42.0054C5.85192 42.0054 6.20331 42.0359 6.59036 42.0971C6.97741 42.148 7.36954 42.26 7.76678 42.4332C8.17419 42.5961 8.57652 42.8304 8.97375 43.136C9.37098 43.4313 9.74784 43.8286 10.1043 44.3277C10.8886 45.4277 11.7187 46.981 12.5947 48.9875C13.4706 50.9838 14.4026 53.4131 15.3906 56.2752C15.7063 55.3279 16.017 54.3858 16.3225 53.4487C16.6281 52.5015 16.9387 51.5848 17.2545 50.6986C17.5702 49.8023 17.886 48.9417 18.2017 48.1166C18.5277 47.2916 18.8638 46.5175 19.2101 45.7944C19.5666 45.0305 19.9282 44.3582 20.2948 43.7777C20.6717 43.1869 21.0791 42.6929 21.5171 42.2957C21.9653 41.8984 22.4643 41.598 23.0143 41.3943C23.5644 41.1804 24.1959 41.0734 24.9088 41.0734C25.4385 41.0734 25.8714 41.1906 26.2075 41.4248C26.5436 41.6489 26.7117 41.9901 26.7117 42.4485C26.7117 42.8559 26.6455 43.192 26.513 43.4568C26.3806 43.7216 26.1973 43.854 25.963 43.854C25.7695 43.854 25.6167 43.7827 25.5047 43.6401C25.4028 43.4874 25.2959 43.3244 25.1838 43.1512C25.082 42.9781 24.9547 42.8202 24.8019 42.6776C24.6593 42.5248 24.4505 42.4485 24.1755 42.4485C23.5542 42.4485 22.9787 42.7336 22.4491 43.304C21.9296 43.8744 21.4356 44.6485 20.9671 45.6263C20.5087 46.6041 20.0606 47.75 19.6226 49.0639C19.1948 50.3676 18.7619 51.7528 18.324 53.2195C17.886 54.6862 17.4276 56.1988 16.9489 57.7571C16.4702 59.3053 15.9559 60.8128 15.4058 62.2795C14.8558 63.7462 14.2498 65.1314 13.5877 66.4351C12.9359 67.749 12.2076 68.8949 11.403 69.8727C10.5983 70.8505 9.7071 71.6246 8.7293 72.195C7.7515 72.7654 6.66675 73.0505 5.47506 73.0505C4.9556 73.0505 4.45142 73.0047 3.96252 72.913C3.48381 72.8316 3.05602 72.7144 2.67916 72.5616C2.29211 72.4089 1.97637 72.2255 1.73192 72.0116C1.47728 71.7977 1.33468 71.5686 1.30413 71.3241C1.28376 71.1408 1.29394 70.9524 1.33468 70.7588C1.36524 70.5755 1.42126 70.4074 1.50274 70.2546C1.58423 70.1019 1.69627 69.9746 1.83886 69.8727C1.97127 69.7708 2.12915 69.7199 2.31248 69.7199C2.42452 69.7199 2.53147 69.7759 2.63332 69.888C2.72499 70 2.82685 70.1375 2.93889 70.3005C3.05093 70.4736 3.17315 70.657 3.30556 70.8505C3.44816 71.044 3.62131 71.2223 3.82502 71.3852C4.02873 71.5584 4.26808 71.701 4.54309 71.813C4.82828 71.9251 5.16949 71.9811 5.56673 71.9811ZM21.1046 57.0238C21.1046 55.6895 21.2981 54.5233 21.6852 53.5251C22.0722 52.5167 22.5866 51.6764 23.2282 51.0042C23.8801 50.332 24.6338 49.8278 25.4894 49.4917C26.345 49.1556 27.2413 48.9875 28.1784 48.9875C29.1154 48.9875 30.0117 49.1454 30.8673 49.4611C31.7229 49.7667 32.4715 50.2403 33.1132 50.882C33.7651 51.5237 34.2845 52.3385 34.6716 53.3265C35.0586 54.3043 35.2521 55.4654 35.2521 56.8099C35.2521 58.1442 35.0586 59.3257 34.6716 60.3544C34.2845 61.3831 33.7651 62.2489 33.1132 62.9517C32.4715 63.6545 31.7229 64.1892 30.8673 64.5559C30.0117 64.9124 29.1154 65.0906 28.1784 65.0906C27.2413 65.0906 26.345 64.9226 25.4894 64.5865C24.6338 64.2402 23.8801 63.7309 23.2282 63.0587C22.5866 62.3864 22.0722 61.5461 21.6852 60.5378C21.2981 59.5294 21.1046 58.3581 21.1046 57.0238ZM30.5006 56.871C30.5006 56.0562 30.4701 55.2719 30.409 54.5182C30.358 53.7543 30.2511 53.0769 30.0881 52.4862C29.9252 51.8954 29.6909 51.4269 29.3853 51.0806C29.0798 50.7241 28.6774 50.5459 28.1784 50.5459C27.6793 50.5459 27.2769 50.7343 26.9714 51.1112C26.6658 51.4778 26.4316 51.9667 26.2686 52.5779C26.1056 53.1788 25.9987 53.8663 25.9477 54.6404C25.8968 55.4145 25.8714 56.209 25.8714 57.0238C25.8714 57.8386 25.8968 58.6382 25.9477 59.4225C25.9987 60.1965 26.1056 60.8892 26.2686 61.5003C26.4316 62.1114 26.6658 62.6054 26.9714 62.9823C27.2769 63.3489 27.6793 63.5323 28.1784 63.5323C28.6774 63.5323 29.0798 63.3387 29.3853 62.9517C29.6909 62.5647 29.9252 62.0554 30.0881 61.4239C30.2511 60.7924 30.358 60.0794 30.409 59.285C30.4701 58.4905 30.5006 57.6858 30.5006 56.871ZM37.4675 55.2362C37.4675 54.1973 37.6457 53.2908 38.0022 52.5167C38.3689 51.7325 38.8578 51.0806 39.4689 50.5611C40.08 50.0315 40.7879 49.6394 41.5926 49.3847C42.3972 49.1199 43.2426 48.9875 44.1287 48.9875C45.0149 48.9875 45.8552 49.1046 46.6496 49.3389C47.4441 49.5732 48.1469 49.9347 48.758 50.4236C48.9515 50.1283 49.1094 49.8176 49.2316 49.4917C49.3538 49.1657 49.415 48.8398 49.415 48.5139C49.415 48.0861 49.2978 47.7449 49.0636 47.4902C48.8395 47.2356 48.5492 47.1083 48.1927 47.1083V46.6652C48.4168 46.5939 48.6154 46.5328 48.7886 46.4819C48.9617 46.4208 49.1196 46.3749 49.2622 46.3444C49.4048 46.3138 49.5474 46.2935 49.69 46.2833C49.8326 46.2629 49.9904 46.2527 50.1636 46.2527C50.6423 46.2527 51.009 46.4004 51.2636 46.6958C51.5182 46.9912 51.6456 47.3986 51.6456 47.918C51.6456 48.2236 51.5743 48.5291 51.4317 48.8347C51.2891 49.1301 51.1108 49.4153 50.8969 49.6903C50.683 49.9653 50.4437 50.225 50.1789 50.4695C49.9242 50.7139 49.6798 50.9278 49.4455 51.1112C49.8733 51.6001 50.2043 52.1704 50.4386 52.8223C50.6729 53.4742 50.79 54.2177 50.79 55.0529C50.79 56.102 50.6067 57.0289 50.24 57.8335C49.8835 58.6382 49.3997 59.3155 48.7886 59.8655C48.1774 60.4155 47.4695 60.8331 46.6649 61.1183C45.8602 61.3933 45.0149 61.5308 44.1287 61.5308C43.6093 61.5308 43.1 61.485 42.6009 61.3933C42.1018 61.3017 41.6333 61.1693 41.1953 60.9961C41.0324 61.1183 40.8898 61.2711 40.7675 61.4544C40.6555 61.6378 40.5995 61.8415 40.5995 62.0656C40.5995 62.4424 40.7624 62.7225 41.0884 62.9059C41.4143 63.0892 41.8472 63.2216 42.387 63.3031C42.9268 63.3846 43.538 63.4355 44.2204 63.4559C44.9028 63.4763 45.6005 63.5119 46.3135 63.5628C47.0367 63.6036 47.7395 63.6901 48.4219 63.8226C49.1043 63.9448 49.7154 64.1536 50.2553 64.449C50.7951 64.7342 51.228 65.1263 51.5539 65.6254C51.8798 66.1245 52.0428 66.7712 52.0428 67.5657C52.0428 68.1463 51.9206 68.6657 51.6761 69.1241C51.4317 69.5926 51.1006 70 50.683 70.3463C50.2756 70.7028 49.7969 71.0033 49.2469 71.2477C48.7071 71.5024 48.1316 71.7061 47.5205 71.8589C46.9195 72.0218 46.3033 72.139 45.6718 72.2102C45.0505 72.2815 44.4547 72.3172 43.8843 72.3172C42.8454 72.3172 41.9083 72.2612 41.0731 72.1491C40.2481 72.0473 39.5453 71.8843 38.9647 71.6602C38.3841 71.4362 37.936 71.1459 37.6202 70.7894C37.3045 70.4329 37.1466 70.0051 37.1466 69.506C37.1466 69.1495 37.2281 68.8185 37.3911 68.5129C37.554 68.2176 37.7679 67.9426 38.0328 67.6879C38.3078 67.4435 38.6133 67.2194 38.9494 67.0157C39.2856 66.8222 39.6268 66.6388 39.9731 66.4657C39.4638 66.2518 39.036 65.9258 38.6897 65.4879C38.3536 65.0601 38.1855 64.4897 38.1855 63.7767C38.1855 63.3999 38.2517 63.0536 38.3841 62.7378C38.5166 62.4119 38.6846 62.1165 38.8883 61.8517C39.1022 61.5767 39.3314 61.3322 39.5758 61.1183C39.8305 60.8942 40.0749 60.7058 40.3092 60.553C39.8916 60.3086 39.5045 60.0132 39.1481 59.6669C38.8017 59.3104 38.5013 58.9132 38.2466 58.4752C38.0022 58.0271 37.8087 57.5331 37.6661 56.9932C37.5337 56.4534 37.4675 55.8677 37.4675 55.2362ZM46.1913 55.114C46.1913 54.5233 46.1607 53.9478 46.0996 53.3876C46.0385 52.8274 45.9315 52.3283 45.7788 51.8903C45.626 51.4524 45.4172 51.101 45.1524 50.8361C44.8875 50.5611 44.5463 50.4236 44.1287 50.4236C43.7111 50.4236 43.3699 50.5662 43.1051 50.8514C42.8403 51.1264 42.6315 51.4931 42.4787 51.9515C42.3259 52.3996 42.219 52.914 42.1578 53.4945C42.0967 54.0649 42.0662 54.6455 42.0662 55.2362C42.0662 55.8372 42.0967 56.4279 42.1578 57.0085C42.219 57.5891 42.3259 58.1085 42.4787 58.5669C42.6315 59.0252 42.8403 59.397 43.1051 59.6822C43.3699 59.9572 43.7111 60.0947 44.1287 60.0947C44.5463 60.0947 44.8875 59.947 45.1524 59.6516C45.4172 59.3563 45.626 58.9743 45.7788 58.5058C45.9315 58.0271 46.0385 57.4923 46.0996 56.9016C46.1607 56.3108 46.1913 55.715 46.1913 55.114ZM48.5135 68.7879C48.5135 68.462 48.3862 68.1921 48.1316 67.9782C47.877 67.7745 47.5408 67.6064 47.1232 67.474C46.7158 67.3518 46.2473 67.255 45.7176 67.1837C45.1982 67.1226 44.6686 67.0717 44.1287 67.031C43.5889 67.0004 43.0643 66.9699 42.5551 66.9393C42.0458 66.9087 41.6027 66.868 41.2259 66.8171C41.012 66.9699 40.8032 67.1328 40.5995 67.306C40.406 67.4893 40.2328 67.6777 40.08 67.8713C39.9374 68.075 39.8203 68.2838 39.7286 68.4977C39.637 68.7217 39.5911 68.9458 39.5911 69.1699C39.5911 69.5569 39.7032 69.8778 39.9272 70.1324C40.1513 70.3972 40.4518 70.606 40.8286 70.7588C41.2157 70.9116 41.6588 71.0186 42.1578 71.0797C42.6671 71.1408 43.2019 71.1713 43.762 71.1713C44.5056 71.1713 45.1727 71.1051 45.7635 70.9727C46.3542 70.8505 46.8533 70.6773 47.2607 70.4533C47.6682 70.2394 47.9788 69.9898 48.1927 69.7046C48.4066 69.4194 48.5135 69.1139 48.5135 68.7879ZM58.0165 57.8335C58.0165 58.1595 58.0624 58.516 58.154 58.903C58.2559 59.2799 58.3985 59.6618 58.5818 60.0489C58.7652 60.4359 58.9893 60.8077 59.2541 61.1642C59.5291 61.5105 59.8397 61.8211 60.186 62.0961C60.5425 62.3711 60.9347 62.5901 61.3625 62.7531C61.7902 62.9161 62.2588 62.9975 62.768 62.9975C63.1245 62.9975 63.4556 62.9568 63.7611 62.8753C64.0667 62.7938 64.3519 62.6818 64.6167 62.5392C64.8815 62.3966 65.1362 62.2336 65.3806 62.0503C65.6251 61.8568 65.8695 61.6531 66.114 61.4392L66.4959 61.8058C66.2616 62.1216 65.9612 62.4679 65.5945 62.8448C65.2278 63.2216 64.7848 63.5781 64.2653 63.9142C63.7458 64.2402 63.1398 64.5152 62.4472 64.7392C61.7546 64.9531 60.9652 65.0601 60.0791 65.0601C59.193 65.0601 58.3272 64.9022 57.4818 64.5865C56.6466 64.2605 55.9031 63.7767 55.2512 63.135C54.5993 62.4934 54.0748 61.6938 53.6776 60.7364C53.2905 59.7789 53.097 58.6585 53.097 57.3752C53.097 56.4483 53.2141 55.5978 53.4484 54.8237C53.6826 54.0496 53.9984 53.3519 54.3956 52.7306C54.803 52.1093 55.2716 51.5644 55.8012 51.0959C56.341 50.6273 56.9063 50.2403 57.4971 49.9347C58.0878 49.619 58.6888 49.3847 59.2999 49.2319C59.9212 49.069 60.5171 48.9875 61.0874 48.9875C61.8412 48.9875 62.4981 49.069 63.0583 49.2319C63.6185 49.3949 64.082 49.6139 64.4486 49.8889C64.8255 50.1639 65.1056 50.4848 65.2889 50.8514C65.4723 51.2079 65.5639 51.5848 65.5639 51.982C65.5639 52.4607 65.4264 52.8936 65.1514 53.2806C64.8764 53.6575 64.5097 53.9885 64.0514 54.2737L58.0165 57.8335ZM61.0874 54.7321C61.2199 54.6506 61.3268 54.5742 61.4083 54.5029C61.5 54.4214 61.5713 54.3297 61.6222 54.2279C61.6731 54.1159 61.7088 53.9834 61.7291 53.8307C61.7597 53.6677 61.775 53.4691 61.775 53.2348C61.775 52.9802 61.7444 52.7001 61.6833 52.3945C61.6324 52.0788 61.5407 51.7834 61.4083 51.5084C61.2759 51.2334 61.1078 51.0042 60.9041 50.8209C60.7004 50.6375 60.456 50.5459 60.1708 50.5459C59.8041 50.5459 59.4883 50.6579 59.2235 50.882C58.9689 51.0959 58.755 51.376 58.5818 51.7223C58.4189 52.0686 58.2865 52.4658 58.1846 52.914C58.0929 53.3519 58.0216 53.795 57.9707 54.2432C57.9198 54.6913 57.8892 55.1242 57.879 55.5418C57.8689 55.9492 57.8638 56.2955 57.8638 56.5807L61.0874 54.7321ZM73.4627 50.2097C73.2285 50.2097 73.0044 50.2403 72.7905 50.3014C72.5868 50.3625 72.4034 50.4644 72.2405 50.607C72.0775 50.7394 71.9502 50.9125 71.8585 51.1264C71.7669 51.3301 71.721 51.5746 71.721 51.8598C71.721 52.257 71.8636 52.6542 72.1488 53.0515C72.4442 53.4385 72.8058 53.8459 73.2336 54.2737C73.6715 54.6913 74.1401 55.1293 74.6391 55.5876C75.1484 56.0358 75.6169 56.5145 76.0447 57.0238C76.4827 57.5229 76.8443 58.0576 77.1295 58.628C77.4249 59.1984 77.5725 59.8095 77.5725 60.4614C77.5725 61.1947 77.4452 61.8466 77.1906 62.417C76.9461 62.9874 76.5897 63.4712 76.1211 63.8684C75.6628 64.2656 75.1026 64.5712 74.4405 64.7851C73.7887 64.9888 73.0604 65.0906 72.2558 65.0906C71.553 65.0906 70.9164 64.9939 70.346 64.8004C69.7756 64.5966 69.2663 64.3522 68.8182 64.067C68.3802 63.7716 68.0033 63.461 67.6876 63.135C67.3719 62.8091 67.1274 62.5137 66.9542 62.2489L67.489 61.867C67.6214 62.0197 67.7895 62.1878 67.9932 62.3711C68.1969 62.5443 68.4209 62.7073 68.6654 62.86C68.92 63.0128 69.1899 63.1401 69.4751 63.242C69.7603 63.3337 70.0506 63.3795 70.346 63.3795C71.0793 63.3795 71.6803 63.2063 72.1488 62.86C72.6173 62.5035 72.8516 61.979 72.8516 61.2864C72.8516 60.8993 72.7243 60.5021 72.4697 60.0947C72.215 59.6771 71.8942 59.2493 71.5071 58.8113C71.1201 58.3734 70.7025 57.9201 70.2543 57.4516C69.8062 56.983 69.3886 56.4992 69.0015 56.0002C68.6145 55.5011 68.2936 54.9867 68.039 54.4571C67.7844 53.9274 67.657 53.3774 67.657 52.807C67.657 52.1653 67.7844 51.6051 68.039 51.1264C68.3038 50.6477 68.6501 50.2505 69.0779 49.9347C69.5159 49.619 70.0099 49.3847 70.5599 49.2319C71.1201 49.069 71.6956 48.9875 72.2863 48.9875C72.9687 48.9875 73.59 49.0486 74.1502 49.1708C74.7104 49.2931 75.1892 49.4815 75.5864 49.7361C75.9938 49.9806 76.3045 50.2912 76.5184 50.6681C76.7424 51.0449 76.8545 51.4829 76.8545 51.982C76.8545 52.3691 76.7272 52.7052 76.4725 52.9904C76.2179 53.2756 75.8614 53.4182 75.4031 53.4182C74.9651 53.4182 74.629 53.3265 74.3947 53.1431C74.1706 52.9496 74.0586 52.6899 74.0586 52.364C74.0586 52.1501 74.1095 51.982 74.2114 51.8598C74.3234 51.7376 74.4456 51.6408 74.578 51.5695C74.7104 51.488 74.8276 51.4218 74.9294 51.3709C75.0415 51.3098 75.0975 51.2334 75.0975 51.1417C75.0975 50.8565 74.9447 50.6324 74.6391 50.4695C74.3336 50.2963 73.9414 50.2097 73.4627 50.2097ZM84.8297 51.8903C85.2065 51.3505 85.6343 50.8667 86.113 50.4389C86.3065 50.2556 86.5204 50.0773 86.7547 49.9042C86.9992 49.731 87.2538 49.5782 87.5186 49.4458C87.7936 49.3032 88.0788 49.1912 88.3742 49.1097C88.6797 49.0282 88.9904 48.9875 89.3062 48.9875C89.9886 48.9875 90.5997 49.1199 91.1395 49.3847C91.6794 49.6495 92.1326 50.0926 92.4993 50.7139C92.866 51.3352 93.1461 52.1603 93.3396 53.189C93.5331 54.2075 93.6299 55.4756 93.6299 56.9932C93.6299 58.4701 93.4975 59.7535 93.2326 60.8433C92.9678 61.9332 92.6215 62.86 92.1937 63.6239C91.7659 64.3878 91.2821 65.0092 90.7423 65.4879C90.2025 65.9768 89.6575 66.3587 89.1075 66.6337C88.5575 66.9087 88.0279 67.0972 87.5186 67.199C87.0093 67.3111 86.5714 67.3722 86.2047 67.3824L86.0519 66.756C86.5103 66.6439 86.9177 66.4351 87.2742 66.1296C87.6306 65.824 87.9311 65.3249 88.1756 64.6323C88.42 63.9295 88.6034 62.9874 88.7256 61.8058C88.858 60.6243 88.9242 59.1016 88.9242 57.2377C88.9242 55.9543 88.8631 54.9307 88.7409 54.1668C88.6288 53.3927 88.476 52.807 88.2825 52.4098C88.0992 52.0024 87.8853 51.7376 87.6408 51.6153C87.4066 51.4829 87.1672 51.4167 86.9228 51.4167C86.6274 51.4167 86.3677 51.4982 86.1436 51.6612C85.9195 51.8139 85.7209 51.9922 85.5477 52.1959C85.3848 52.3996 85.2422 52.6033 85.1199 52.807C85.0079 53.0107 84.9111 53.1635 84.8297 53.2654V63.4712C84.8297 63.6036 84.8093 63.7665 84.7685 63.9601C84.7278 64.1434 84.626 64.3216 84.463 64.4948C84.3102 64.6578 84.0759 64.7953 83.7602 64.9073C83.4546 65.0295 83.0319 65.0906 82.4921 65.0906C81.9523 65.0906 81.5245 65.0244 81.2087 64.892C80.893 64.7698 80.6536 64.6221 80.4907 64.449C80.3379 64.2758 80.2411 64.0976 80.2004 63.9142C80.1596 63.7309 80.1393 63.5832 80.1393 63.4712V43.7624C80.1393 43.467 80.068 43.2124 79.9254 42.9985C79.793 42.7744 79.5638 42.6623 79.2379 42.6623C79.0647 42.6623 78.9119 42.6929 78.7795 42.754C78.6573 42.8049 78.5249 42.8864 78.3823 42.9985L78.0767 42.6318C78.311 42.4383 78.5707 42.2498 78.8559 42.0665C79.1411 41.873 79.4518 41.7049 79.7879 41.5623C80.1342 41.4197 80.5009 41.3026 80.8879 41.2109C81.2749 41.1193 81.6824 41.0734 82.1102 41.0734C82.7722 41.0734 83.2866 41.1651 83.6532 41.3484C84.0199 41.5216 84.2898 41.7406 84.463 42.0054C84.6361 42.26 84.738 42.535 84.7685 42.8304C84.8093 43.1156 84.8297 43.3702 84.8297 43.5943V51.8903ZM115.401 53.8307C115.401 53.1584 115.355 52.6033 115.264 52.1653C115.172 51.7274 115.07 51.3658 114.958 51.0806C114.856 50.7852 114.76 50.5459 114.668 50.3625C114.576 50.169 114.53 49.9908 114.53 49.8278C114.53 49.675 114.591 49.5477 114.714 49.4458C114.836 49.344 114.978 49.2574 115.141 49.1861C115.315 49.1148 115.488 49.0639 115.661 49.0333C115.844 49.0028 115.992 48.9875 116.104 48.9875C116.399 48.9875 116.613 49.0282 116.746 49.1097C116.878 49.1912 116.985 49.3491 117.067 49.5833C117.158 49.8787 117.219 50.2709 117.25 50.7598C117.291 51.2385 117.311 51.7528 117.311 52.3028C117.311 53.0871 117.265 53.9478 117.173 54.8849C117.082 55.8219 116.934 56.7641 116.73 57.7113C116.537 58.6585 116.282 59.5752 115.966 60.4614C115.661 61.3475 115.289 62.1369 114.851 62.8295C114.413 63.5119 113.909 64.0619 113.339 64.4795C112.768 64.8869 112.121 65.0906 111.398 65.0906C110.828 65.0906 110.314 64.9786 109.855 64.7545C109.407 64.5203 109.005 64.2045 108.648 63.8073C108.292 63.41 107.976 62.9466 107.701 62.417C107.436 61.8771 107.202 61.3017 106.998 60.6905C106.764 61.3119 106.494 61.8924 106.188 62.4322C105.883 62.9619 105.542 63.4253 105.165 63.8226C104.798 64.2198 104.391 64.5304 103.943 64.7545C103.494 64.9786 103.011 65.0906 102.491 65.0906C101.849 65.0906 101.279 64.9531 100.78 64.6781C100.291 64.3929 99.8582 64.011 99.4814 63.5323C99.1045 63.0434 98.7786 62.4781 98.5036 61.8364C98.2286 61.1947 97.9892 60.5174 97.7855 59.8044C97.592 59.0914 97.429 58.3581 97.2966 57.6044C97.1642 56.8506 97.0522 56.1224 96.9605 55.4196C96.8688 54.7168 96.7924 54.0598 96.7313 53.4487C96.6702 52.8376 96.6091 52.3079 96.548 51.8598C96.4767 51.4524 96.3697 51.1366 96.2271 50.9125C96.0947 50.6885 95.8656 50.5764 95.5396 50.5764C95.3665 50.5764 95.2188 50.607 95.0966 50.6681C94.9743 50.7292 94.8419 50.8158 94.6993 50.9278L94.3785 50.5459C94.6128 50.3523 94.8725 50.1639 95.1577 49.9806C95.4531 49.787 95.7688 49.619 96.1049 49.4764C96.441 49.3338 96.8026 49.2167 97.1897 49.125C97.5767 49.0333 97.9841 48.9875 98.4119 48.9875C99.023 48.9875 99.517 49.0944 99.8939 49.3083C100.271 49.512 100.566 49.7718 100.78 50.0875C101.004 50.3931 101.162 50.7241 101.254 51.0806C101.345 51.4371 101.412 51.7579 101.452 52.0431C101.636 53.5811 101.814 54.9358 101.987 56.1071C102.17 57.2784 102.364 58.2613 102.568 59.0558C102.771 59.8401 102.99 60.4359 103.225 60.8433C103.469 61.2406 103.754 61.4392 104.08 61.4392C104.294 61.4392 104.503 61.3475 104.707 61.1642C104.91 60.9808 105.104 60.7262 105.287 60.4003C105.47 60.0743 105.644 59.6822 105.807 59.2238C105.969 58.7553 106.112 58.2409 106.234 57.6807C106.132 57.1206 106.046 56.5654 105.975 56.0154C105.903 55.4654 105.837 54.9409 105.776 54.4418C105.725 53.9325 105.674 53.4589 105.623 53.0209C105.572 52.5829 105.516 52.1959 105.455 51.8598C105.302 50.9024 105.389 50.1843 105.715 49.7056C106.051 49.2269 106.718 48.9875 107.716 48.9875C108.154 48.9875 108.521 49.0282 108.816 49.1097C109.122 49.181 109.371 49.3236 109.565 49.5375C109.769 49.7412 109.932 50.0264 110.054 50.3931C110.176 50.7496 110.273 51.2079 110.344 51.7681C110.538 53.2959 110.726 54.6608 110.909 55.8627C111.093 57.0645 111.286 58.078 111.49 58.903C111.694 59.728 111.913 60.3595 112.147 60.7975C112.391 61.2253 112.677 61.4392 113.003 61.4392C113.349 61.4392 113.67 61.2253 113.965 60.7975C114.26 60.3697 114.515 59.8044 114.729 59.1016C114.943 58.3988 115.106 57.5891 115.218 56.6724C115.34 55.7557 115.401 54.8085 115.401 53.8307ZM127.013 56.9321C127.013 56.6775 126.931 56.484 126.768 56.3516C126.605 56.2191 126.396 56.1529 126.142 56.1529C125.785 56.1529 125.444 56.2344 125.118 56.3974C124.802 56.5604 124.522 56.7997 124.278 57.1155C124.033 57.4312 123.84 57.8233 123.697 58.2919C123.555 58.7502 123.483 59.285 123.483 59.8961C123.483 60.4868 123.524 60.9757 123.606 61.3628C123.697 61.7498 123.814 62.0605 123.957 62.2947C124.11 62.5188 124.283 62.6767 124.476 62.7684C124.67 62.86 124.874 62.9059 125.088 62.9059C125.352 62.9059 125.602 62.8397 125.836 62.7073C126.07 62.5647 126.274 62.3864 126.447 62.1725C126.62 61.9586 126.758 61.7193 126.86 61.4544C126.962 61.1896 127.013 60.9248 127.013 60.66V56.9321ZM124.583 50.2403C124.237 50.2403 123.916 50.281 123.621 50.3625C123.325 50.444 123.071 50.5459 122.857 50.6681C122.643 50.7903 122.475 50.9278 122.353 51.0806C122.231 51.2232 122.169 51.3607 122.169 51.4931C122.169 51.6459 122.246 51.7579 122.399 51.8292C122.562 51.8903 122.74 51.9667 122.933 52.0584C123.127 52.1399 123.3 52.2621 123.453 52.4251C123.616 52.5779 123.697 52.8172 123.697 53.1431C123.697 53.357 123.651 53.5557 123.56 53.739C123.478 53.9121 123.361 54.07 123.208 54.2126C123.066 54.345 122.893 54.452 122.689 54.5335C122.495 54.6048 122.292 54.6404 122.078 54.6404C121.507 54.6404 121.044 54.4469 120.687 54.0598C120.341 53.6728 120.168 53.1584 120.168 52.5167C120.168 51.8954 120.331 51.3658 120.657 50.9278C120.983 50.4797 121.405 50.113 121.925 49.8278C122.455 49.5426 123.05 49.3338 123.712 49.2014C124.375 49.0588 125.037 48.9875 125.699 48.9875C126.493 48.9875 127.252 49.0741 127.975 49.2472C128.698 49.4204 129.335 49.6954 129.885 50.0722C130.445 50.4491 130.888 50.9278 131.214 51.5084C131.55 52.089 131.718 52.7917 131.718 53.6168V62.2489C131.718 62.3406 131.723 62.4424 131.734 62.5545C131.744 62.6665 131.769 62.7684 131.81 62.86C131.851 62.9517 131.912 63.0281 131.993 63.0892C132.075 63.1503 132.192 63.1809 132.345 63.1809C132.528 63.1809 132.696 63.1147 132.849 62.9823C133.012 62.8397 133.154 62.6971 133.277 62.5545L133.659 62.8753C133.506 63.0892 133.322 63.3235 133.109 63.5781C132.895 63.8327 132.635 64.0721 132.329 64.2962C132.024 64.5203 131.667 64.7087 131.26 64.8615C130.852 65.0143 130.389 65.0906 129.87 65.0906C129.228 65.0906 128.658 64.9022 128.158 64.5254C127.659 64.1383 127.333 63.5476 127.181 62.7531C126.855 63.1911 126.513 63.5577 126.157 63.8531C125.811 64.1485 125.454 64.3878 125.088 64.5712C124.721 64.7545 124.349 64.8869 123.972 64.9684C123.606 65.0499 123.234 65.0906 122.857 65.0906C122.368 65.0906 121.894 65.0143 121.436 64.8615C120.978 64.7087 120.565 64.4693 120.199 64.1434C119.842 63.8073 119.552 63.3744 119.328 62.8448C119.114 62.3151 119.007 61.6683 119.007 60.9044C119.007 59.9776 119.19 59.2187 119.557 58.628C119.924 58.0372 120.402 57.5432 120.993 57.146C121.594 56.7386 122.271 56.3923 123.025 56.1071C123.789 55.8219 124.568 55.5214 125.363 55.2057C125.953 54.9714 126.381 54.6251 126.646 54.1668C126.921 53.6983 127.058 53.2195 127.058 52.7306C127.058 51.9769 126.834 51.376 126.386 50.9278C125.948 50.4695 125.347 50.2403 124.583 50.2403ZM140.595 52.2112C140.982 51.6204 141.394 51.0857 141.832 50.607C142.016 50.4033 142.214 50.2047 142.428 50.0111C142.642 49.8176 142.861 49.6445 143.085 49.4917C143.319 49.3389 143.559 49.2167 143.803 49.125C144.048 49.0333 144.292 48.9875 144.537 48.9875C145.056 48.9875 145.463 49.1454 145.759 49.4611C146.054 49.7667 146.202 50.1996 146.202 50.7598C146.202 51.1061 146.171 51.4422 146.11 51.7681C146.059 52.0839 145.952 52.4709 145.789 52.9293H145.362C145.3 52.6135 145.158 52.3538 144.934 52.1501C144.71 51.9362 144.384 51.8292 143.956 51.8292C143.64 51.8292 143.33 51.8903 143.024 52.0126C142.718 52.1246 142.418 52.2672 142.123 52.4404C141.837 52.6135 141.562 52.8019 141.298 53.0056C141.043 53.2093 140.809 53.4029 140.595 53.5862V63.5017C140.595 63.6341 140.574 63.792 140.534 63.9753C140.493 64.1587 140.391 64.3318 140.228 64.4948C140.075 64.6578 139.841 64.7953 139.525 64.9073C139.22 65.0295 138.797 65.0906 138.257 65.0906C137.717 65.0906 137.29 65.0244 136.974 64.892C136.668 64.7698 136.434 64.6221 136.271 64.449C136.108 64.2758 136.006 64.0976 135.966 63.9142C135.925 63.7309 135.904 63.5832 135.904 63.4712V51.6764C135.904 51.3811 135.833 51.1264 135.691 50.9125C135.558 50.6885 135.329 50.5764 135.003 50.5764C134.83 50.5764 134.682 50.607 134.56 50.6681C134.438 50.7292 134.305 50.8158 134.163 50.9278L133.842 50.5459C134.076 50.3523 134.336 50.1639 134.621 49.9806C134.916 49.787 135.232 49.619 135.568 49.4764C135.904 49.3338 136.266 49.2167 136.653 49.125C137.04 49.0333 137.448 48.9875 137.875 48.9875C138.313 48.9875 138.685 49.0486 138.991 49.1708C139.306 49.2829 139.561 49.4357 139.755 49.6292C139.958 49.8125 140.116 50.0213 140.228 50.2556C140.34 50.4898 140.422 50.7292 140.473 50.9737C140.534 51.2079 140.569 51.4371 140.58 51.6612C140.59 51.8751 140.595 52.0584 140.595 52.2112Z" fill="#771C00"/>
<path d="M31.066 80.584L31.1666 82.5056C31.0027 82.7811 30.783 83.0307 30.5074 83.2541C30.2319 83.4775 29.8893 83.66 29.4796 83.8015C29.07 83.9356 28.5859 84.0026 28.0273 84.0026C27.1187 83.9951 26.3217 83.8313 25.6365 83.511C24.9588 83.1833 24.4337 82.7178 24.0613 82.1146C23.6889 81.5113 23.5027 80.7814 23.5027 79.9249C23.5027 79.0907 23.6852 78.372 24.0501 77.7687C24.4151 77.158 24.9364 76.6888 25.6142 76.3611C26.2994 76.0334 27.1149 75.8695 28.0608 75.8695C28.6566 75.8695 29.1892 75.9291 29.6584 76.0483C30.135 76.1675 30.5335 76.3127 30.8538 76.484L30.8649 78.3944H30.7644C30.5633 77.657 30.2356 77.132 29.7813 76.8191C29.3269 76.4989 28.7944 76.3388 28.1837 76.3388C27.5879 76.3388 27.0777 76.484 26.6532 76.7745C26.2286 77.0649 25.9009 77.4746 25.6701 78.0034C25.4392 78.5321 25.3237 79.1652 25.3237 79.9026C25.3237 80.6399 25.4317 81.2767 25.6477 81.8129C25.8711 82.3492 26.184 82.7663 26.5861 83.0642C26.9958 83.3621 27.4762 83.5185 28.0273 83.5334C28.6008 83.5334 29.0849 83.4403 29.4796 83.2541C29.8744 83.0679 30.1909 82.7588 30.4292 82.3268C30.675 81.8949 30.8575 81.3139 30.9766 80.584H31.066ZM35.2808 76.8415L38.5877 83.7903H36.6997L34.6217 78.8859L35.2808 76.8415ZM33.1805 83.1089C33.0986 83.3099 33.1098 83.4664 33.2141 83.5781C33.3183 83.6823 33.4338 83.7345 33.5604 83.7345H33.6498V83.8462H31.4154V83.7345C31.4154 83.7345 31.4303 83.7345 31.4601 83.7345C31.4899 83.7345 31.5048 83.7345 31.5048 83.7345C31.6537 83.7345 31.8101 83.6898 31.974 83.6004C32.1378 83.5036 32.2719 83.3397 32.3762 83.1089H33.1805ZM35.2808 76.8415L35.3032 78.1821L32.8789 83.8127H32.0522L34.6664 78.1933C34.6813 78.1486 34.7148 78.0704 34.7669 77.9587C34.8191 77.8395 34.8749 77.7092 34.9345 77.5677C34.9941 77.4187 35.05 77.2809 35.1021 77.1543C35.1542 77.0202 35.184 76.916 35.1915 76.8415H35.2808ZM36.2528 81.6565V82.0922H33.404V81.6565H36.2528ZM36.4204 83.1089H38.2637C38.3754 83.3397 38.5132 83.5036 38.6771 83.6004C38.8409 83.6898 38.9973 83.7345 39.1463 83.7345C39.1463 83.7345 39.1612 83.7345 39.191 83.7345C39.2208 83.7345 39.2356 83.7345 39.2356 83.7345V83.8462H35.9511V83.7345H36.0405C36.1671 83.7345 36.2826 83.6823 36.3868 83.5781C36.4911 83.4664 36.5023 83.3099 36.4204 83.1089ZM42.408 77.1766V83.8462H40.7881V77.1766H42.408ZM44.8434 77.132V77.5788H38.3638V77.132H44.8434ZM44.8434 77.5453V78.7295H44.7206V78.629C44.728 78.3087 44.6386 78.0555 44.4524 77.8693C44.2737 77.6831 44.0242 77.5863 43.7039 77.5788V77.5453H44.8434ZM44.8434 76.9644V77.2437L43.6592 77.132C43.8007 77.132 43.9534 77.1245 44.1173 77.1096C44.2811 77.0873 44.4301 77.0649 44.5641 77.0426C44.6982 77.0128 44.7913 76.9867 44.8434 76.9644ZM40.8104 83.1424V83.8462H40.0619V83.7345C40.0619 83.7345 40.0805 83.7345 40.1178 83.7345C40.1625 83.7345 40.1848 83.7345 40.1848 83.7345C40.3487 83.7345 40.4864 83.6786 40.5982 83.5669C40.7173 83.4477 40.7806 83.3062 40.7881 83.1424H40.8104ZM42.3745 83.1424H42.408C42.408 83.3062 42.4676 83.4477 42.5867 83.5669C42.7059 83.6786 42.8511 83.7345 43.0224 83.7345C43.0224 83.7345 43.0411 83.7345 43.0783 83.7345C43.123 83.7345 43.1453 83.7345 43.1453 83.7345V83.8462H42.3745V83.1424ZM39.5033 77.5453V77.5788C39.1756 77.5863 38.9224 77.6831 38.7437 77.8693C38.5724 78.0555 38.4867 78.3087 38.4867 78.629V78.7295H38.3638V77.5453H39.5033ZM38.3638 76.9644C38.4308 76.9793 38.5277 77.0016 38.6543 77.0314C38.7883 77.0612 38.9336 77.0873 39.09 77.1096C39.2538 77.1245 39.4028 77.132 39.5368 77.132L38.3638 77.2437V76.9644ZM47.7752 77.1431V83.8462H46.1664V77.1431H47.7752ZM50.3894 83.3993L50.6463 83.8462H47.7528V83.3993H50.3894ZM50.0095 80.3047V80.7516H47.7528V80.3047H50.0095ZM50.5122 77.1431V77.59H47.7528V77.1431H50.5122ZM51.1043 81.7906L50.6798 83.8462H48.7471L49.0934 83.3993C49.4137 83.3993 49.6967 83.336 49.9425 83.2094C50.1957 83.0753 50.4117 82.8891 50.5904 82.6508C50.7692 82.405 50.907 82.1183 51.0038 81.7906H51.1043ZM50.0095 80.7293V81.7124H49.8978V81.623C49.8978 81.3772 49.8196 81.1724 49.6632 81.0086C49.5142 80.8447 49.3094 80.7591 49.0487 80.7516V80.7293H50.0095ZM50.0095 79.344V80.3271H49.0487V80.3047C49.3094 80.2973 49.5142 80.2116 49.6632 80.0478C49.8196 79.8765 49.8978 79.6679 49.8978 79.4222V79.344H50.0095ZM50.5122 77.5677V78.7519H50.4005V78.6513C50.4005 78.3236 50.3112 78.0667 50.1324 77.8805C49.9611 77.6943 49.7116 77.5974 49.3839 77.59V77.5677H50.5122ZM50.5122 76.9755V77.2437L49.3392 77.1431C49.5552 77.1431 49.7824 77.1245 50.0207 77.0873C50.259 77.0426 50.4229 77.0053 50.5122 76.9755ZM46.1888 83.1424L46.2446 83.8462H45.4179V83.7345C45.4179 83.7345 45.4403 83.7345 45.4849 83.7345C45.5296 83.7345 45.5557 83.7345 45.5631 83.7345C45.727 83.7345 45.8648 83.6786 45.9765 83.5669C46.0957 83.4477 46.159 83.3062 46.1664 83.1424H46.1888ZM46.1888 77.8469H46.1664C46.159 77.6756 46.0957 77.5341 45.9765 77.4224C45.8648 77.3107 45.727 77.2548 45.5631 77.2548C45.5557 77.2548 45.5296 77.2548 45.4849 77.2548C45.4403 77.2548 45.4179 77.2548 45.4179 77.2548V77.1431H46.2446L46.1888 77.8469ZM53.9928 77.1431H55.1993C55.5047 77.1431 55.8026 77.1766 56.0931 77.2437C56.3835 77.3033 56.6442 77.4038 56.8751 77.5453C57.106 77.6794 57.2885 77.8656 57.4225 78.1039C57.564 78.3348 57.6348 78.6252 57.6348 78.9753C57.6348 79.236 57.5789 79.4966 57.4672 79.7573C57.3629 80.0105 57.1954 80.2303 56.9645 80.4165C56.741 80.6027 56.4468 80.7255 56.0819 80.7851C56.2979 80.8522 56.5027 80.9825 56.6963 81.1761C56.8974 81.3698 57.0538 81.5523 57.1656 81.7236C57.1954 81.7831 57.2475 81.88 57.322 82.014C57.3964 82.1406 57.4895 82.2896 57.6013 82.4609C57.7204 82.6247 57.8433 82.796 57.9699 82.9748C58.1189 83.1759 58.2492 83.3323 58.3609 83.444C58.4727 83.5483 58.5881 83.6228 58.7073 83.6674C58.8264 83.7121 58.9642 83.7345 59.1206 83.7345V83.8462H58.1822C57.78 83.8462 57.4374 83.8164 57.1544 83.7568C56.8788 83.6972 56.6368 83.5892 56.4282 83.4328C56.2271 83.269 56.0409 83.0493 55.8696 82.7737C55.8026 82.6769 55.7319 82.5614 55.6574 82.4274C55.5829 82.2859 55.5084 82.1444 55.4339 82.0028C55.3595 81.8613 55.2924 81.7236 55.2328 81.5895C55.1807 81.4554 55.1435 81.3437 55.1211 81.2543C55.0243 81.016 54.9126 80.8447 54.786 80.7404C54.6668 80.6287 54.5551 80.5729 54.4508 80.5729V80.4723C54.4508 80.4723 54.4769 80.4723 54.529 80.4723C54.5812 80.4723 54.6482 80.4723 54.7301 80.4723C54.8865 80.4723 55.0392 80.4462 55.1882 80.3941C55.3446 80.3345 55.4861 80.2265 55.6127 80.0701C55.7393 79.9063 55.8324 79.6679 55.892 79.3551C55.9069 79.3104 55.918 79.2471 55.9255 79.1652C55.9404 79.0833 55.9441 78.9902 55.9367 78.8859C55.9218 78.6104 55.8696 78.3906 55.7803 78.2268C55.6983 78.0555 55.5941 77.9289 55.4675 77.8469C55.3408 77.7576 55.2105 77.698 55.0764 77.6682C54.9498 77.631 54.8381 77.6123 54.7413 77.6123C54.5998 77.6049 54.4694 77.6049 54.3503 77.6123C54.2386 77.6123 54.1529 77.6086 54.0933 77.6012C54.0859 77.6012 54.0747 77.5639 54.0598 77.4895C54.0449 77.4075 54.03 77.3293 54.0151 77.2548C54.0002 77.1804 53.9928 77.1431 53.9928 77.1431ZM54.1045 77.1431V83.8462H52.4846V77.1431H54.1045ZM52.5181 83.1424L52.5628 83.8462H51.7584V83.7345C51.7659 83.7345 51.7845 83.7345 51.8143 83.7345C51.8515 83.7345 51.8776 83.7345 51.8925 83.7345C52.0563 83.7345 52.1941 83.6786 52.3058 83.5669C52.425 83.4477 52.4883 83.3062 52.4958 83.1424H52.5181ZM52.5181 77.8358H52.4958C52.4883 77.6645 52.425 77.5267 52.3058 77.4224C52.1941 77.3107 52.0601 77.2548 51.9037 77.2548C51.8813 77.2548 51.8515 77.2548 51.8143 77.2548C51.7845 77.2548 51.7659 77.2548 51.7584 77.2548V77.1431H52.5628L52.5181 77.8358ZM54.0822 83.1424H54.1045C54.1045 83.3286 54.1678 83.4738 54.2944 83.5781C54.4285 83.6823 54.57 83.7345 54.7189 83.7345C54.7189 83.7345 54.7338 83.7345 54.7636 83.7345C54.7934 83.7345 54.8158 83.7345 54.8307 83.7345V83.8462H54.0263L54.0822 83.1424ZM61.4243 77.1431V83.8462H59.8155V77.1431H61.4243ZM59.8491 83.1424V83.8462H59.0335V83.7345C59.0335 83.7345 59.0559 83.7345 59.1005 83.7345C59.1452 83.7345 59.1713 83.7345 59.1788 83.7345C59.3501 83.7345 59.499 83.6786 59.6256 83.5669C59.7522 83.4477 59.8155 83.3062 59.8155 83.1424H59.8491ZM61.4019 83.1424H61.4243C61.4317 83.3062 61.495 83.4477 61.6142 83.5669C61.7408 83.6786 61.8935 83.7345 62.0722 83.7345C62.0722 83.7345 62.0909 83.7345 62.1281 83.7345C62.1728 83.7345 62.1989 83.7345 62.2063 83.7345V83.8462H61.4019V83.1424ZM61.4019 77.8469V77.1431H62.2063L62.1951 77.2548C62.1951 77.2548 62.1765 77.2548 62.1393 77.2548C62.102 77.2548 62.0797 77.2548 62.0722 77.2548C61.8935 77.2548 61.7408 77.3107 61.6142 77.4224C61.495 77.5341 61.4317 77.6756 61.4243 77.8469H61.4019ZM59.8491 77.8469H59.8155C59.8155 77.6756 59.7522 77.5341 59.6256 77.4224C59.499 77.3107 59.3463 77.2548 59.1676 77.2548C59.1676 77.2548 59.1452 77.2548 59.1005 77.2548C59.0559 77.2548 59.0335 77.2548 59.0335 77.2548V77.1431H59.8491V77.8469ZM63.5979 76.9867L70.1557 82.7514L70.2674 83.9914L63.7208 78.2268L63.5979 76.9867ZM63.6426 83.1647V83.8462H62.8159V83.7345C62.8159 83.7345 62.8457 83.7345 62.9052 83.7345C62.9648 83.7345 62.9946 83.7345 62.9946 83.7345C63.1659 83.7345 63.3111 83.6823 63.4303 83.5781C63.5495 83.4664 63.6091 83.3286 63.6091 83.1647H63.6426ZM65.1396 83.1647C65.147 83.3286 65.2103 83.4664 65.3295 83.5781C65.4487 83.6823 65.5902 83.7345 65.754 83.7345C65.754 83.7345 65.7838 83.7345 65.8434 83.7345C65.9104 83.7345 65.944 83.7345 65.944 83.7345V83.8462H65.1173V83.1647H65.1396ZM63.5979 76.9867L65.1396 78.6625V83.8462H63.6091V78.2603C63.6091 77.8805 63.5904 77.5751 63.5532 77.3442C63.516 77.1059 63.4973 76.9867 63.4973 76.9867H63.5979ZM70.2563 77.1431V82.6843C70.2563 82.945 70.2637 83.1759 70.2786 83.377C70.301 83.5706 70.3196 83.7233 70.3345 83.835C70.3568 83.9393 70.368 83.9914 70.368 83.9914H70.2674L68.7257 82.2151V77.1431H70.2563ZM70.2228 77.8246V77.1431H71.0606V77.2548C71.0606 77.2548 71.0271 77.2548 70.9601 77.2548C70.9005 77.2548 70.8707 77.2548 70.8707 77.2548C70.7069 77.2548 70.5616 77.3107 70.435 77.4224C70.3159 77.5267 70.2563 77.6608 70.2563 77.8246H70.2228ZM68.7257 77.8246C68.7183 77.6608 68.655 77.5267 68.5358 77.4224C68.4241 77.3107 68.2826 77.2548 68.1113 77.2548C68.1113 77.2548 68.0778 77.2548 68.0107 77.2548C67.9512 77.2548 67.9214 77.2548 67.9214 77.2548V77.1431H68.7481V77.8246H68.7257ZM75.3337 76.9979C75.6763 76.9979 76.0189 77.0202 76.3615 77.0649C76.7115 77.1022 77.0355 77.1617 77.3334 77.2437C77.6388 77.3181 77.8957 77.4075 78.1043 77.5118V79.2881H78.0149C77.8957 78.8114 77.717 78.4391 77.4786 78.1709C77.2478 77.9028 76.9796 77.7129 76.6743 77.6012C76.3689 77.4895 76.0375 77.4336 75.68 77.4336C75.1586 77.4336 74.7192 77.5565 74.3617 77.8023C74.0042 78.048 73.7324 78.4055 73.5462 78.8748C73.3674 79.3365 73.2781 79.8951 73.2781 80.5505C73.2781 81.1687 73.36 81.7012 73.5238 82.1481C73.6877 82.595 73.9297 82.9413 74.25 83.1871C74.5703 83.4328 74.9575 83.5557 75.4119 83.5557C75.6502 83.5557 75.8774 83.5185 76.0933 83.444C76.3093 83.3621 76.4993 83.2466 76.6631 83.0977C76.827 82.9413 76.9424 82.7514 77.0094 82.5279L77.0206 81.1873C77.0206 81.0384 76.9759 80.9266 76.8865 80.8522C76.8046 80.7777 76.6855 80.7404 76.529 80.7404H76.3726V80.6399H79.2438V80.7404H79.0986C78.7708 80.7404 78.6107 80.8894 78.6182 81.1873V82.6732C78.4618 82.8817 78.2197 83.0865 77.892 83.2876C77.5643 83.4887 77.177 83.6563 76.7301 83.7903C76.2833 83.9244 75.7954 83.9914 75.2666 83.9914C74.5218 83.984 73.8739 83.8425 73.3227 83.5669C72.7716 83.2839 72.3434 82.8817 72.038 82.3603C71.7326 81.839 71.5799 81.2134 71.5799 80.4835C71.5799 79.7536 71.7326 79.1317 72.038 78.6178C72.3434 78.0964 72.7753 77.698 73.3339 77.4224C73.8925 77.1394 74.5591 76.9979 75.3337 76.9979ZM85.2483 75.8695C85.3972 75.8695 85.5797 75.877 85.7957 75.8919C86.0191 75.9068 86.2463 75.9291 86.4772 75.9589C86.7155 75.9813 86.9203 76.0073 87.0916 76.0371C87.2704 76.0595 87.3933 76.0855 87.4603 76.1153L87.3262 77.6235H87.2145C87.2145 77.2362 87.0693 76.9271 86.7788 76.6963C86.4958 76.4579 86.1159 76.3388 85.6393 76.3388C85.2073 76.3388 84.8573 76.443 84.5891 76.6516C84.3285 76.8601 84.1907 77.1133 84.1758 77.4112C84.1683 77.6347 84.2391 77.8283 84.388 77.9922C84.537 78.156 84.7269 78.3087 84.9578 78.4502L87.0916 79.8355C87.4342 80.0292 87.6912 80.2824 87.8625 80.5952C88.0412 80.908 88.1194 81.273 88.0971 81.69C88.0598 82.4199 87.7805 82.9897 87.2592 83.3993C86.7378 83.8015 86.0303 84.0026 85.1366 84.0026C84.8088 84.0026 84.4886 83.9728 84.1758 83.9132C83.8704 83.8611 83.5986 83.7866 83.3602 83.6898C83.1219 83.5855 82.932 83.4626 82.7905 83.3211C82.7309 83.1573 82.7048 82.9599 82.7123 82.729C82.7197 82.4981 82.7532 82.2635 82.8128 82.0252C82.8799 81.7869 82.9618 81.5895 83.0586 81.4331H83.1591C83.1294 81.8129 83.1964 82.1667 83.3602 82.4944C83.5315 82.8147 83.7773 83.0716 84.0976 83.2653C84.4253 83.4515 84.8126 83.5408 85.2594 83.5334C85.751 83.5259 86.1308 83.403 86.399 83.1647C86.6671 82.9189 86.8011 82.6247 86.8011 82.2821C86.8011 82.0513 86.7304 81.8427 86.5889 81.6565C86.4548 81.4703 86.2314 81.2916 85.9186 81.1203L83.9635 79.8244C83.5688 79.6009 83.282 79.3142 83.1033 78.9641C82.9245 78.6141 82.8538 78.2342 82.891 77.8246C82.9283 77.4373 83.0437 77.0984 83.2373 76.808C83.431 76.5101 83.6954 76.2792 84.0305 76.1153C84.3731 75.9515 84.7791 75.8695 85.2483 75.8695ZM87.4715 75.9813L87.4491 76.2159H86.1308V75.9813H87.4715ZM91.3167 77.1431V83.8462H89.708V77.1431H91.3167ZM93.9309 83.3993L94.1879 83.8462H91.2944V83.3993H93.9309ZM93.5511 80.3047V80.7516H91.2944V80.3047H93.5511ZM94.0538 77.1431V77.59H91.2944V77.1431H94.0538ZM94.6459 81.7906L94.2214 83.8462H92.2887L92.635 83.3993C92.9553 83.3993 93.2383 83.336 93.4841 83.2094C93.7373 83.0753 93.9533 82.8891 94.132 82.6508C94.3108 82.405 94.4486 82.1183 94.5454 81.7906H94.6459ZM93.5511 80.7293V81.7124H93.4394V81.623C93.4394 81.3772 93.3612 81.1724 93.2048 81.0086C93.0558 80.8447 92.851 80.7591 92.5903 80.7516V80.7293H93.5511ZM93.5511 79.344V80.3271H92.5903V80.3047C92.851 80.2973 93.0558 80.2116 93.2048 80.0478C93.3612 79.8765 93.4394 79.6679 93.4394 79.4222V79.344H93.5511ZM94.0538 77.5677V78.7519H93.9421V78.6513C93.9421 78.3236 93.8527 78.0667 93.674 77.8805C93.5027 77.6943 93.2532 77.5974 92.9255 77.59V77.5677H94.0538ZM94.0538 76.9755V77.2437L92.8808 77.1431C93.0968 77.1431 93.3239 77.1245 93.5623 77.0873C93.8006 77.0426 93.9644 77.0053 94.0538 76.9755ZM89.7303 83.1424L89.7862 83.8462H88.9595V83.7345C88.9595 83.7345 88.9818 83.7345 89.0265 83.7345C89.0712 83.7345 89.0973 83.7345 89.1047 83.7345C89.2686 83.7345 89.4064 83.6786 89.5181 83.5669C89.6372 83.4477 89.7005 83.3062 89.708 83.1424H89.7303ZM89.7303 77.8469H89.708C89.7005 77.6756 89.6372 77.5341 89.5181 77.4224C89.4064 77.3107 89.2686 77.2548 89.1047 77.2548C89.0973 77.2548 89.0712 77.2548 89.0265 77.2548C88.9818 77.2548 88.9595 77.2548 88.9595 77.2548V77.1431H89.7862L89.7303 77.8469ZM97.5343 77.1431H98.7409C99.0463 77.1431 99.3442 77.1766 99.6346 77.2437C99.9251 77.3033 100.186 77.4038 100.417 77.5453C100.648 77.6794 100.83 77.8656 100.964 78.1039C101.106 78.3348 101.176 78.6252 101.176 78.9753C101.176 79.236 101.12 79.4966 101.009 79.7573C100.904 80.0105 100.737 80.2303 100.506 80.4165C100.283 80.6027 99.9884 80.7255 99.6235 80.7851C99.8395 80.8522 100.044 80.9825 100.238 81.1761C100.439 81.3698 100.595 81.5523 100.707 81.7236C100.737 81.7831 100.789 81.88 100.864 82.014C100.938 82.1406 101.031 82.2896 101.143 82.4609C101.262 82.6247 101.385 82.796 101.511 82.9748C101.66 83.1759 101.791 83.3323 101.903 83.444C102.014 83.5483 102.13 83.6228 102.249 83.6674C102.368 83.7121 102.506 83.7345 102.662 83.7345V83.8462H101.724C101.322 83.8462 100.979 83.8164 100.696 83.7568C100.42 83.6972 100.178 83.5892 99.9698 83.4328C99.7687 83.269 99.5825 83.0493 99.4112 82.7737C99.3442 82.6769 99.2734 82.5614 99.1989 82.4274C99.1245 82.2859 99.05 82.1444 98.9755 82.0028C98.901 81.8613 98.834 81.7236 98.7744 81.5895C98.7223 81.4554 98.685 81.3437 98.6627 81.2543C98.5659 81.016 98.4541 80.8447 98.3275 80.7404C98.2084 80.6287 98.0967 80.5729 97.9924 80.5729V80.4723C97.9924 80.4723 98.0185 80.4723 98.0706 80.4723C98.1227 80.4723 98.1898 80.4723 98.2717 80.4723C98.4281 80.4723 98.5808 80.4462 98.7297 80.3941C98.8861 80.3345 99.0276 80.2265 99.1542 80.0701C99.2809 79.9063 99.374 79.6679 99.4335 79.3551C99.4484 79.3104 99.4596 79.2471 99.4671 79.1652C99.482 79.0833 99.4857 78.9902 99.4782 78.8859C99.4633 78.6104 99.4112 78.3906 99.3218 78.2268C99.2399 78.0555 99.1356 77.9289 99.009 77.8469C98.8824 77.7576 98.7521 77.698 98.618 77.6682C98.4914 77.631 98.3797 77.6123 98.2828 77.6123C98.1413 77.6049 98.011 77.6049 97.8918 77.6123C97.7801 77.6123 97.6945 77.6086 97.6349 77.6012C97.6274 77.6012 97.6163 77.5639 97.6014 77.4895C97.5865 77.4075 97.5716 77.3293 97.5567 77.2548C97.5418 77.1804 97.5343 77.1431 97.5343 77.1431ZM97.6461 77.1431V83.8462H96.0262V77.1431H97.6461ZM96.0597 83.1424L96.1044 83.8462H95.3V83.7345C95.3074 83.7345 95.3261 83.7345 95.3558 83.7345C95.3931 83.7345 95.4192 83.7345 95.434 83.7345C95.5979 83.7345 95.7357 83.6786 95.8474 83.5669C95.9666 83.4477 96.0299 83.3062 96.0373 83.1424H96.0597ZM96.0597 77.8358H96.0373C96.0299 77.6645 95.9666 77.5267 95.8474 77.4224C95.7357 77.3107 95.6016 77.2548 95.4452 77.2548C95.4229 77.2548 95.3931 77.2548 95.3558 77.2548C95.3261 77.2548 95.3074 77.2548 95.3 77.2548V77.1431H96.1044L96.0597 77.8358ZM97.6237 83.1424H97.6461C97.6461 83.3286 97.7094 83.4738 97.836 83.5781C97.97 83.6823 98.1115 83.7345 98.2605 83.7345C98.2605 83.7345 98.2754 83.7345 98.3052 83.7345C98.335 83.7345 98.3573 83.7345 98.3722 83.7345V83.8462H97.5679L97.6237 83.1424ZM105.443 83.9914L102.159 77.199H104.058L106.091 81.9358L105.443 83.9914ZM105.443 83.9914L105.399 82.6843L107.823 77.1766H108.639L106.058 82.6285C106.043 82.6657 106.009 82.7439 105.957 82.8631C105.905 82.9748 105.849 83.1051 105.79 83.2541C105.73 83.3956 105.674 83.5334 105.622 83.6674C105.577 83.8015 105.551 83.9095 105.544 83.9914H105.443ZM107.51 77.8805C107.592 77.6794 107.581 77.523 107.477 77.4112C107.38 77.2995 107.264 77.2437 107.13 77.2437H107.052V77.1431H109.275V77.2548C109.275 77.2548 109.26 77.2548 109.231 77.2548C109.201 77.2548 109.186 77.2548 109.186 77.2548C109.037 77.2548 108.881 77.3033 108.717 77.4001C108.553 77.4895 108.415 77.6496 108.303 77.8805H107.51ZM104.349 77.8805H102.494C102.382 77.6496 102.245 77.4895 102.081 77.4001C101.924 77.3033 101.772 77.2548 101.623 77.2548C101.623 77.2548 101.612 77.2548 101.589 77.2548C101.559 77.2548 101.544 77.2548 101.544 77.2548V77.1431H104.818V77.2437H104.728C104.609 77.2437 104.498 77.2995 104.393 77.4112C104.289 77.523 104.274 77.6794 104.349 77.8805ZM111.795 77.1431V83.8462H110.187V77.1431H111.795ZM110.22 83.1424V83.8462H109.405V83.7345C109.405 83.7345 109.427 83.7345 109.472 83.7345C109.516 83.7345 109.542 83.7345 109.55 83.7345C109.721 83.7345 109.87 83.6786 109.997 83.5669C110.123 83.4477 110.187 83.3062 110.187 83.1424H110.22ZM111.773 83.1424H111.795C111.803 83.3062 111.866 83.4477 111.985 83.5669C112.112 83.6786 112.265 83.7345 112.443 83.7345C112.443 83.7345 112.462 83.7345 112.499 83.7345C112.544 83.7345 112.57 83.7345 112.577 83.7345V83.8462H111.773V83.1424ZM111.773 77.8469V77.1431H112.577L112.566 77.2548C112.566 77.2548 112.548 77.2548 112.51 77.2548C112.473 77.2548 112.451 77.2548 112.443 77.2548C112.265 77.2548 112.112 77.3107 111.985 77.4224C111.866 77.5341 111.803 77.6756 111.795 77.8469H111.773ZM110.22 77.8469H110.187C110.187 77.6756 110.123 77.5341 109.997 77.4224C109.87 77.3107 109.718 77.2548 109.539 77.2548C109.539 77.2548 109.516 77.2548 109.472 77.2548C109.427 77.2548 109.405 77.2548 109.405 77.2548V77.1431H110.22V77.8469ZM119.937 81.0421L120.06 82.729C119.919 82.9673 119.721 83.1833 119.468 83.377C119.215 83.5632 118.906 83.7121 118.541 83.8238C118.176 83.9356 117.751 83.9914 117.267 83.9914C116.433 83.984 115.714 83.8425 115.111 83.5669C114.508 83.2913 114.042 82.8966 113.714 82.3827C113.394 81.8613 113.234 81.2283 113.234 80.4835C113.234 79.7536 113.394 79.1317 113.714 78.6178C114.035 78.0964 114.497 77.698 115.1 77.4224C115.703 77.1394 116.426 76.9979 117.267 76.9979C117.774 76.9979 118.243 77.0463 118.675 77.1431C119.114 77.2399 119.479 77.3628 119.77 77.5118L119.781 79.2881H119.691C119.505 78.6029 119.211 78.1225 118.809 77.8469C118.407 77.5714 117.93 77.4336 117.379 77.4336C116.835 77.4336 116.381 77.5602 116.016 77.8134C115.658 78.0667 115.387 78.4204 115.2 78.8748C115.022 79.3291 114.932 79.8616 114.932 80.4723C114.932 81.0905 115.022 81.6267 115.2 82.0811C115.387 82.5354 115.655 82.8891 116.005 83.1424C116.355 83.3956 116.776 83.5297 117.267 83.5446C117.796 83.5446 118.232 83.4626 118.574 83.2988C118.924 83.1349 119.2 82.8705 119.401 82.5056C119.609 82.1406 119.758 81.6528 119.848 81.0421H119.937ZM123.217 77.1431V83.8462H121.609V77.1431H123.217ZM125.832 83.3993L126.089 83.8462H123.195V83.3993H125.832ZM125.452 80.3047V80.7516H123.195V80.3047H125.452ZM125.954 77.1431V77.59H123.195V77.1431H125.954ZM126.547 81.7906L126.122 83.8462H124.189L124.536 83.3993C124.856 83.3993 125.139 83.336 125.385 83.2094C125.638 83.0753 125.854 82.8891 126.033 82.6508C126.211 82.405 126.349 82.1183 126.446 81.7906H126.547ZM125.452 80.7293V81.7124H125.34V81.623C125.34 81.3772 125.262 81.1724 125.105 81.0086C124.956 80.8447 124.752 80.7591 124.491 80.7516V80.7293H125.452ZM125.452 79.344V80.3271H124.491V80.3047C124.752 80.2973 124.956 80.2116 125.105 80.0478C125.262 79.8765 125.34 79.6679 125.34 79.4222V79.344H125.452ZM125.954 77.5677V78.7519H125.843V78.6513C125.843 78.3236 125.753 78.0667 125.575 77.8805C125.403 77.6943 125.154 77.5974 124.826 77.59V77.5677H125.954ZM125.954 76.9755V77.2437L124.781 77.1431C124.997 77.1431 125.225 77.1245 125.463 77.0873C125.701 77.0426 125.865 77.0053 125.954 76.9755ZM121.631 83.1424L121.687 83.8462H120.86V83.7345C120.86 83.7345 120.882 83.7345 120.927 83.7345C120.972 83.7345 120.998 83.7345 121.005 83.7345C121.169 83.7345 121.307 83.6786 121.419 83.5669C121.538 83.4477 121.601 83.3062 121.609 83.1424H121.631ZM121.631 77.8469H121.609C121.601 77.6756 121.538 77.5341 121.419 77.4224C121.307 77.3107 121.169 77.2548 121.005 77.2548C120.998 77.2548 120.972 77.2548 120.927 77.2548C120.882 77.2548 120.86 77.2548 120.86 77.2548V77.1431H121.687L121.631 77.8469Z" fill="#771C00"/>
</svg>
